<svg width="300" height="210" viewBox="0 0 300 210" fill="none" xmlns="http://www.w3.org/2000/svg">
<g clip-path="url(#clip0_89_465)">
<path d="M300 0H0V210H300V0Z" fill="#F9F9FA"/>
<g clip-path="url(#clip1_89_465)">
<g clip-path="url(#clip2_89_465)">
<g clip-path="url(#clip3_89_465)">
<g clip-path="url(#clip4_89_465)">
<g clip-path="url(#clip5_89_465)">
<g clip-path="url(#clip6_89_465)">
<g clip-path="url(#clip7_89_465)">
<path d="M65.6705 135.165L57.5072 117.711L49.381 135.165V135.139C49.2326 135.399 49.0297 135.61 48.7725 135.773C48.5103 135.939 48.1936 136.023 47.8226 136.023C47.6247 136.023 47.4342 136.01 47.2511 135.986C47.0631 135.959 46.8702 135.927 46.6723 135.893H46.7094C45.2994 135.581 44.7799 135.027 45.1509 134.23L53.6111 116.23C53.7348 115.953 53.9525 115.719 54.2642 115.529C54.5709 115.339 54.9345 115.226 55.3551 115.191C55.7756 115.139 56.1838 115.1 56.5796 115.072C56.9754 115.048 57.2846 115.035 57.5072 115.035C57.7299 115.035 58.0391 115.048 58.4349 115.072C58.8307 115.1 59.2388 115.131 59.6594 115.165C60.0057 115.2 60.3471 115.33 60.6835 115.555C61.015 115.78 61.2673 116.005 61.4404 116.23C62.8257 119.209 64.2308 122.208 65.6557 125.228C67.0756 128.251 68.4782 131.252 69.8635 134.23C70.2098 135.027 69.6903 135.581 68.3051 135.893C68.1072 135.927 67.929 135.959 67.7707 135.986C67.6075 136.01 67.4269 136.023 67.229 136.023C66.8827 136.023 66.5685 135.939 66.2865 135.773C65.9995 135.61 65.7942 135.399 65.6705 135.139V135.165ZM60.2902 129.555C60.2902 130.109 60.0131 130.58 59.459 130.968C58.8999 131.359 58.2246 131.555 57.433 131.555C56.6414 131.555 55.9735 131.359 55.4293 130.968C54.8851 130.58 54.6129 130.109 54.6129 129.555C54.6129 129.001 54.8851 128.528 55.4293 128.137C55.9735 127.749 56.6414 127.555 57.433 127.555C58.2246 127.555 58.8999 127.749 59.459 128.137C60.0131 128.528 60.2902 129.001 60.2902 129.555ZM77.0992 116.152V134.776C77.0992 135.59 76.4189 135.997 75.0583 135.997C73.673 135.997 72.9804 135.59 72.9804 134.776V116.152C72.9804 115.339 73.673 114.932 75.0583 114.932C76.4189 114.932 77.0992 115.339 77.0992 116.152ZM86.4499 116.152V134.776C86.4499 135.59 85.7696 135.997 84.409 135.997C83.0237 135.997 82.3311 135.59 82.3311 134.776V116.152C82.3311 115.339 83.0237 114.932 84.409 114.932C85.7696 114.932 86.4499 115.339 86.4499 116.152ZM123.029 129.919V131.633C123.029 133.036 122.361 134.083 121.025 134.776C120.382 135.105 119.722 135.359 119.044 135.539C118.361 135.723 117.698 135.815 117.055 135.815H108.966C108.323 135.815 107.662 135.723 106.984 135.539C106.302 135.359 105.639 135.105 104.995 134.776C104.352 134.43 103.858 134.002 103.511 133.493C103.165 132.98 102.992 132.36 102.992 131.633V119.295C102.992 118.603 103.165 117.993 103.511 117.467C103.858 116.937 104.352 116.507 104.995 116.178H104.958C105.601 115.884 106.269 115.642 106.962 115.451C107.655 115.261 108.323 115.165 108.966 115.165H117.055C117.698 115.165 118.366 115.261 119.059 115.451C119.751 115.642 120.419 115.884 121.062 116.178H121.025C121.668 116.507 122.163 116.937 122.509 117.467C122.856 117.993 123.029 118.603 123.029 119.295V121.087C123.029 121.919 122.287 122.334 120.803 122.334C119.343 122.334 118.613 121.919 118.613 121.087V119.529C118.613 119.096 118.428 118.698 118.057 118.334C117.686 117.971 117.042 117.789 116.127 117.789H109.893C108.978 117.789 108.335 117.971 107.964 118.334C107.593 118.698 107.407 119.096 107.407 119.529V131.425C107.407 131.875 107.593 132.282 107.964 132.646C108.335 133.01 108.978 133.191 109.893 133.191H116.127C117.042 133.191 117.686 133.01 118.057 132.646C118.428 132.282 118.613 131.875 118.613 131.425V129.919C118.613 129.105 119.343 128.698 120.803 128.698C122.287 128.698 123.029 129.105 123.029 129.919ZM138.539 135.789H133.678C132.911 135.789 132.182 135.714 131.489 135.565C130.796 135.42 130.129 135.209 129.485 134.932V134.958C128.273 134.421 127.667 133.434 127.667 131.997V130.724C127.667 130.014 127.845 129.394 128.201 128.864C128.563 128.338 129.065 127.919 129.708 127.607H129.671C130.289 127.313 130.945 127.091 131.638 126.942C132.33 126.797 132.998 126.724 133.641 126.724H141.842V124.308C141.842 123.875 141.649 123.481 141.263 123.124C140.882 122.771 140.234 122.594 139.318 122.594H134.977C134.037 122.594 133.386 122.753 133.025 123.072C132.669 123.394 132.491 123.771 132.491 124.204V124.412C132.491 125.313 131.798 125.763 130.413 125.763C129.028 125.763 128.335 125.313 128.335 124.412V124.178C128.335 123.468 128.513 122.871 128.869 122.386C129.231 121.901 129.72 121.494 130.339 121.165H130.302C130.945 120.871 131.618 120.629 132.32 120.438C133.028 120.248 133.703 120.152 134.346 120.152H139.986C140.605 120.152 141.265 120.248 141.968 120.438C142.675 120.629 143.338 120.871 143.957 121.165H143.92C144.563 121.494 145.057 121.922 145.404 122.448C145.75 122.978 145.923 123.59 145.923 124.282V134.698C145.923 135.529 145.243 135.945 143.882 135.945C143.61 135.945 143.356 135.936 143.118 135.919C142.886 135.901 142.675 135.853 142.487 135.773C142.304 135.697 142.156 135.585 142.042 135.436C141.933 135.29 141.879 135.096 141.879 134.854L141.842 129.165H134.346C133.802 129.165 133.381 129.209 133.085 129.295C132.788 129.382 132.553 129.52 132.38 129.711C132.182 130.005 132.038 130.234 131.949 130.397C131.865 130.563 131.823 130.75 131.823 130.958V131.971C131.823 132.421 132.014 132.762 132.394 132.994C132.78 133.23 133.443 133.347 134.383 133.347H138.539C139.454 133.347 139.912 133.754 139.912 134.568C139.912 134.914 139.801 135.204 139.578 135.436C139.356 135.671 139.009 135.789 138.539 135.789ZM162.213 134.776V124.49C162.213 124.265 162.161 124.043 162.057 123.825C161.963 123.61 161.839 123.408 161.686 123.217C161.364 122.802 160.699 122.594 159.69 122.594H157.307C156.298 122.594 155.618 122.802 155.267 123.217C154.97 123.616 154.821 124.04 154.821 124.49V134.776C154.821 135.59 154.141 135.997 152.78 135.997C151.375 135.997 150.673 135.59 150.673 134.776V124.256C150.673 122.836 151.338 121.797 152.669 121.139C154.03 120.481 155.356 120.152 156.647 120.152H160.387C160.961 120.152 161.594 120.23 162.287 120.386C162.98 120.542 163.645 120.784 164.283 121.113C164.902 120.784 165.552 120.542 166.235 120.386C166.913 120.23 167.561 120.152 168.179 120.152H171.89C173.206 120.152 174.52 120.481 175.831 121.139C177.191 121.78 177.872 122.819 177.872 124.256V134.776C177.872 135.59 177.176 135.997 175.786 135.997C174.406 135.997 173.716 135.59 173.716 134.776V124.49C173.716 124.265 173.679 124.04 173.604 123.815C173.53 123.59 173.392 123.382 173.189 123.191L173.233 123.217C173.035 122.992 172.788 122.831 172.491 122.734C172.194 122.641 171.761 122.594 171.192 122.594H168.855C167.816 122.594 167.136 122.802 166.814 123.217C166.487 123.598 166.324 124.023 166.324 124.49V134.776C166.324 135.59 165.644 135.997 164.283 135.997C162.903 135.997 162.213 135.59 162.213 134.776ZM194.302 135.789H189.886C188.996 135.789 188.526 135.382 188.476 134.568C188.476 133.754 188.946 133.347 189.886 133.347H193.634C194.549 133.347 195.2 133.165 195.586 132.802C195.967 132.438 196.157 132.049 196.157 131.633V124.308C196.157 123.875 195.967 123.472 195.586 123.098C195.2 122.727 194.537 122.559 193.597 122.594H186.473V138.204C186.473 139.018 185.792 139.425 184.432 139.425C183.071 139.425 182.391 139.01 182.391 138.178V121.685C182.391 121.079 182.614 120.672 183.059 120.464C183.504 120.256 184.048 120.152 184.692 120.152H194.302C194.945 120.152 195.596 120.23 196.254 120.386C196.907 120.542 197.58 120.758 198.272 121.036C198.866 121.33 199.344 121.74 199.705 122.267C200.061 122.797 200.239 123.416 200.239 124.126V131.815C200.239 133.235 199.583 134.248 198.272 134.854C196.887 135.477 195.564 135.789 194.302 135.789ZM209.07 121.295V134.698C209.07 135.529 208.39 135.945 207.029 135.945C205.644 135.945 204.951 135.529 204.951 134.698V121.295C204.951 120.464 205.644 120.048 207.029 120.048C208.39 120.048 209.07 120.464 209.07 121.295ZM209.849 116.776C209.849 117.33 209.577 117.797 209.033 118.178C208.489 118.559 207.821 118.75 207.029 118.75C206.238 118.75 205.565 118.559 205.011 118.178C204.452 117.797 204.172 117.33 204.172 116.776C204.172 116.204 204.452 115.728 205.011 115.347C205.565 114.966 206.238 114.776 207.029 114.776C207.821 114.776 208.489 114.966 209.033 115.347C209.577 115.728 209.849 116.204 209.849 116.776ZM218.31 124.49V134.698C218.31 135.529 217.629 135.945 216.269 135.945C214.908 135.945 214.228 135.529 214.228 134.698V124.256C214.228 123.546 214.389 122.932 214.71 122.412C215.032 121.893 215.539 121.468 216.232 121.139C217.543 120.481 218.854 120.152 220.165 120.152H226.139C227.401 120.152 228.712 120.481 230.072 121.139C231.408 121.797 232.076 122.836 232.076 124.256V134.698C232.076 135.529 231.396 135.945 230.035 135.945C228.675 135.945 227.994 135.529 227.994 134.698V124.49C227.994 124.04 227.796 123.607 227.401 123.191L227.438 123.217C227.116 122.802 226.461 122.594 225.471 122.594H220.833C219.819 122.594 219.151 122.802 218.829 123.217C218.483 123.581 218.31 124.005 218.31 124.49ZM247.326 133.971H242.837C242.189 133.971 241.526 133.893 240.848 133.737C240.165 133.581 239.502 133.356 238.859 133.062C237.523 132.455 236.855 131.434 236.855 129.997V124.126C236.855 123.399 237.036 122.776 237.397 122.256C237.753 121.737 238.24 121.33 238.859 121.036C239.502 120.758 240.16 120.542 240.833 120.386C241.496 120.23 242.149 120.152 242.792 120.152H249.033C249.652 120.152 250.292 120.248 250.955 120.438C251.628 120.629 252.247 120.871 252.811 121.165C253.385 121.494 253.845 121.927 254.191 122.464C254.537 123.001 254.711 123.607 254.711 124.282V135.295C254.711 136.023 254.542 136.643 254.206 137.155C253.87 137.664 253.404 138.092 252.811 138.438C252.247 138.767 251.636 139.023 250.978 139.207C250.32 139.387 249.672 139.477 249.033 139.477H242.792C241.486 139.477 240.165 139.209 238.829 138.672C238.132 138.395 237.629 138.04 237.323 137.607C237.011 137.174 236.855 136.672 236.855 136.101V135.789C236.855 135.443 237.018 135.165 237.345 134.958C237.667 134.75 238.171 134.646 238.859 134.646C240.244 134.75 240.937 135.131 240.937 135.789V136.075C240.937 136.265 241.13 136.473 241.516 136.698C241.902 136.923 242.552 137.036 243.467 137.036H248.106C249.016 137.036 249.664 136.854 250.05 136.49C250.436 136.126 250.629 135.72 250.629 135.269V124.308C250.629 123.875 250.436 123.481 250.05 123.124C249.664 122.771 249.016 122.594 248.106 122.594H243.467C242.552 122.594 241.902 122.771 241.516 123.124C241.13 123.481 240.937 123.875 240.937 124.308V129.789C240.937 130.222 241.13 130.625 241.516 130.999C241.902 131.37 242.552 131.555 243.467 131.555H247.326C248.217 131.555 248.662 131.953 248.662 132.75C248.662 133.113 248.556 133.408 248.343 133.633C248.135 133.858 247.796 133.971 247.326 133.971Z" fill="#DDDFE2"/>
</g>
</g>
<g clip-path="url(#clip8_89_465)">
<g clip-path="url(#clip9_89_465)">
<path d="M48.3089 149.637H45.5146C45.3263 149.637 45.199 149.604 45.1329 149.536C45.0667 149.468 45.0336 149.393 45.0336 149.311V145.709C45.0336 145.627 45.0667 145.553 45.1329 145.487C45.199 145.422 45.3263 145.389 45.5146 145.389H48.1715C48.3598 145.389 48.4591 145.478 48.4692 145.656C48.4794 145.838 48.3802 145.929 48.1715 145.929H45.9345V149.098H48.3089C48.4972 149.098 48.5939 149.185 48.599 149.36C48.6092 149.545 48.5125 149.637 48.3089 149.637ZM47.889 147.425C47.889 147.55 47.8269 147.655 47.7027 147.74C47.5775 147.826 47.4258 147.868 47.2477 147.868C47.0746 147.868 46.927 147.826 46.8049 147.74C46.6827 147.655 46.6216 147.55 46.6216 147.425C46.6216 147.3 46.6827 147.195 46.8049 147.11C46.927 147.024 47.0746 146.981 47.2477 146.981C47.4258 146.981 47.5775 147.024 47.7027 147.11C47.8269 147.195 47.889 147.3 47.889 147.425ZM51.5078 149.632H50.5077C50.3499 149.632 50.1998 149.617 50.0573 149.586C49.9147 149.556 49.7773 149.513 49.645 149.456V149.461C49.3956 149.351 49.2709 149.148 49.2709 148.852V148.59C49.2709 148.444 49.3075 148.316 49.3808 148.207C49.4551 148.099 49.5585 148.013 49.6908 147.949H49.6832C49.8104 147.888 49.9453 147.842 50.0878 147.812C50.2303 147.782 50.3677 147.767 50.5001 147.767H52.1873V147.27C52.1873 147.181 52.1476 147.1 52.0682 147.026C51.9898 146.954 51.8565 146.917 51.6682 146.917H50.7749C50.5815 146.917 50.4476 146.95 50.3733 147.016C50.3 147.082 50.2634 147.159 50.2634 147.249V147.291C50.2634 147.477 50.1209 147.569 49.8358 147.569C49.5508 147.569 49.4083 147.477 49.4083 147.291V147.243C49.4083 147.097 49.445 146.974 49.5182 146.874C49.5926 146.775 49.6933 146.691 49.8206 146.623H49.8129C49.9453 146.563 50.0837 146.513 50.2283 146.474C50.3738 146.434 50.5128 146.415 50.6451 146.415H51.8056C51.9328 146.415 52.0687 146.434 52.2133 146.474C52.3589 146.513 52.4953 146.563 52.6225 146.623H52.6149C52.7472 146.691 52.849 146.779 52.9203 146.887C52.9915 146.996 53.0271 147.122 53.0271 147.265V149.408C53.0271 149.579 52.8872 149.664 52.6072 149.664C52.5512 149.664 52.4988 149.662 52.45 149.659C52.4021 149.655 52.3589 149.645 52.3202 149.629C52.2825 149.613 52.252 149.59 52.2286 149.559C52.2062 149.529 52.195 149.49 52.195 149.44L52.1873 148.269H50.6451C50.5331 148.269 50.4466 148.278 50.3855 148.296C50.3245 148.314 50.2761 148.342 50.2405 148.382C50.1998 148.442 50.1702 148.489 50.1519 148.523C50.1346 148.557 50.126 148.595 50.126 148.638V148.846C50.126 148.939 50.1652 149.009 50.2435 149.057C50.3229 149.106 50.4593 149.13 50.6528 149.13H51.5078C51.6962 149.13 51.7903 149.213 51.7903 149.381C51.7903 149.452 51.7674 149.512 51.7216 149.559C51.6758 149.608 51.6045 149.632 51.5078 149.632ZM55.371 147.762H56.4918C56.619 147.762 56.7554 147.782 56.901 147.823C57.0465 147.864 57.183 147.915 57.3102 147.975H57.3026C57.4349 148.043 57.5367 148.13 57.608 148.237C57.6782 148.344 57.7133 148.472 57.7133 148.622V148.782C57.7133 149.075 57.5764 149.29 57.3026 149.429C57.1692 149.5 57.0343 149.552 56.8979 149.584C56.7605 149.616 56.6251 149.632 56.4918 149.632H55.1939C55.0625 149.632 54.9282 149.616 54.7908 149.584C54.6523 149.552 54.5174 149.5 54.3861 149.429C54.1103 149.294 53.9723 149.078 53.9723 148.782V148.718C53.9723 148.565 54.1123 148.49 54.3922 148.494C54.6773 148.494 54.8198 148.569 54.8198 148.718V148.777C54.8198 148.863 54.8584 148.943 54.9358 149.018C55.0122 149.092 55.147 149.13 55.3405 149.13H56.3482C56.5416 149.13 56.6765 149.092 56.7529 149.018C56.8292 148.943 56.8674 148.863 56.8674 148.777V148.627C56.8674 148.581 56.8582 148.537 56.8399 148.494C56.8226 148.451 56.7936 148.413 56.7529 148.378C56.7122 148.345 56.6587 148.317 56.5925 148.296C56.5254 148.275 56.4439 148.264 56.3482 148.264H55.232C54.9735 148.264 54.7017 148.2 54.4167 148.072C54.1459 147.95 54.0105 147.742 54.0105 147.446V147.265C54.0105 147.122 54.0466 146.996 54.1189 146.887C54.1902 146.779 54.292 146.691 54.4243 146.623H54.4167C54.5439 146.563 54.6783 146.513 54.8198 146.474C54.9633 146.434 55.1007 146.415 55.232 146.415H56.4536C56.5869 146.415 56.7233 146.434 56.8628 146.474C57.0033 146.513 57.1397 146.563 57.272 146.623H57.2644C57.3967 146.691 57.4985 146.779 57.5698 146.887C57.64 146.996 57.6751 147.122 57.6751 147.265V147.313C57.6751 147.388 57.64 147.442 57.5698 147.475C57.4985 147.509 57.3937 147.528 57.2552 147.532C56.9753 147.535 56.8353 147.462 56.8353 147.313V147.27C56.8353 147.181 56.7961 147.1 56.7177 147.026C56.6394 146.954 56.506 146.917 56.3177 146.917H55.371C55.1827 146.917 55.0488 146.954 54.9694 147.026C54.89 147.1 54.8503 147.181 54.8503 147.27V147.398C54.8503 147.491 54.89 147.575 54.9694 147.649C55.0488 147.724 55.1827 147.762 55.371 147.762ZM59.3471 150.38H58.9501C58.772 150.38 58.6778 150.297 58.6676 150.129C58.6676 149.962 58.7618 149.878 58.9501 149.878H59.2861C59.4642 149.878 59.5813 149.841 59.6373 149.766L59.7441 149.568L59.7823 149.482L58.2935 146.752V146.757C58.2528 146.671 58.262 146.598 58.321 146.538C58.3791 146.477 58.4691 146.433 58.5913 146.404C58.6829 146.386 58.7567 146.377 58.8127 146.377C58.9603 146.377 59.0519 146.438 59.0876 146.559L59.6907 147.612L60.2022 148.488L61.0191 146.57C61.0649 146.442 61.1718 146.377 61.3398 146.377C61.3805 146.377 61.4467 146.386 61.5383 146.404C61.6604 146.429 61.7485 146.47 61.8024 146.527C61.8554 146.584 61.8666 146.652 61.836 146.73C61.607 147.275 61.3744 147.824 61.1382 148.376C60.901 148.928 60.6679 149.475 60.4389 150.017C60.4134 150.056 60.3743 150.096 60.3213 150.138C60.2674 150.178 60.1971 150.217 60.1106 150.255C60.0241 150.292 59.9172 150.323 59.7899 150.346C59.6627 150.369 59.5151 150.38 59.3471 150.38ZM66.1344 147.762H67.2567C67.3839 147.762 67.5198 147.782 67.6644 147.823C67.8099 147.864 67.9463 147.915 68.0736 147.975H68.0659C68.1983 148.043 68.3001 148.13 68.3713 148.237C68.4426 148.344 68.4782 148.472 68.4782 148.622V148.782C68.4782 149.075 68.3408 149.29 68.0659 149.429C67.9336 149.5 67.7987 149.552 67.6613 149.584C67.5239 149.616 67.389 149.632 67.2567 149.632H65.9588C65.8264 149.632 65.6916 149.616 65.5541 149.584C65.4167 149.552 65.2818 149.5 65.1495 149.429C64.8746 149.294 64.7372 149.078 64.7372 148.782V148.718C64.7372 148.565 64.8772 148.49 65.1571 148.494C65.4422 148.494 65.5847 148.569 65.5847 148.718V148.777C65.5847 148.863 65.6228 148.943 65.6992 149.018C65.7755 149.092 65.9104 149.13 66.1038 149.13H67.1116C67.305 149.13 67.4399 149.092 67.5162 149.018C67.5926 148.943 67.6308 148.863 67.6308 148.777V148.627C67.6308 148.581 67.6216 148.537 67.6033 148.494C67.586 148.451 67.557 148.413 67.5162 148.378C67.4755 148.345 67.4221 148.317 67.3559 148.296C67.2897 148.275 67.2083 148.264 67.1116 148.264H65.9969C65.7374 148.264 65.4651 148.2 65.18 148.072C64.9103 147.95 64.7754 147.742 64.7754 147.446V147.265C64.7754 147.122 64.811 146.996 64.8823 146.887C64.9535 146.779 65.0553 146.691 65.1877 146.623H65.18C65.3073 146.563 65.4422 146.513 65.5847 146.474C65.7272 146.434 65.8646 146.415 65.9969 146.415H67.2185C67.3508 146.415 67.4867 146.434 67.6262 146.474C67.7667 146.513 67.9031 146.563 68.0354 146.623H68.0278C68.1601 146.691 68.2619 146.779 68.3332 146.887C68.4044 146.996 68.44 147.122 68.44 147.265V147.313C68.44 147.388 68.4044 147.442 68.3332 147.475C68.2619 147.509 68.1576 147.528 68.0201 147.532C67.7402 147.535 67.6002 147.462 67.6002 147.313V147.27C67.6002 147.181 67.5605 147.1 67.4811 147.026C67.4027 146.954 67.2694 146.917 67.0811 146.917H66.1344C65.946 146.917 65.8122 146.954 65.7328 147.026C65.6544 147.1 65.6152 147.181 65.6152 147.27V147.398C65.6152 147.491 65.6544 147.575 65.7328 147.649C65.8122 147.724 65.946 147.762 66.1344 147.762ZM70.3105 147.265V148.777C70.3105 148.863 70.3497 148.943 70.4281 149.018C70.5075 149.092 70.6414 149.13 70.8297 149.13H71.784C71.9724 149.13 72.1057 149.097 72.1841 149.03C72.2635 148.965 72.3032 148.889 72.3032 148.804V148.745C72.3032 148.578 72.4432 148.494 72.7231 148.494C73.003 148.494 73.143 148.578 73.143 148.745V148.809C73.143 148.959 73.1084 149.082 73.0392 149.178C72.971 149.274 72.8682 149.358 72.7307 149.429C72.461 149.564 72.1912 149.632 71.9215 149.632H70.6388C70.3691 149.632 70.1069 149.564 69.8525 149.429C69.7303 149.358 69.6361 149.268 69.57 149.16C69.5038 149.051 69.4707 148.925 69.4707 148.782V147.259C69.4707 146.971 69.598 146.757 69.8525 146.618C69.9797 146.554 70.1105 146.503 70.2449 146.465C70.3803 146.428 70.5116 146.41 70.6388 146.41H71.9215C72.0436 146.41 72.1785 146.426 72.3261 146.46C72.4737 146.494 72.6111 146.54 72.7384 146.597C72.8605 146.657 72.9582 146.741 73.0315 146.848C73.1059 146.955 73.143 147.081 73.143 147.227V147.949C73.143 148.031 73.1084 148.104 73.0392 148.168C72.971 148.232 72.8453 148.264 72.662 148.264H71.0129C70.8297 148.264 70.733 148.18 70.7228 148.013C70.7228 147.845 70.8195 147.762 71.0129 147.762H72.3108L72.3032 147.265C72.3032 147.176 72.2635 147.094 72.1841 147.021C72.1057 146.948 71.9724 146.912 71.784 146.912H70.8297C70.6414 146.912 70.5075 146.948 70.4281 147.021C70.3497 147.094 70.3105 147.176 70.3105 147.265ZM76.2641 149.632H75.2639C75.1061 149.632 74.956 149.617 74.8135 149.586C74.671 149.556 74.5335 149.513 74.4012 149.456V149.461C74.1518 149.351 74.0271 149.148 74.0271 148.852V148.59C74.0271 148.444 74.0643 148.316 74.1386 148.207C74.2119 148.099 74.3147 148.013 74.447 147.949H74.4394C74.5666 147.888 74.7015 147.842 74.844 147.812C74.9865 147.782 75.124 147.767 75.2563 147.767H76.9436V147.27C76.9436 147.181 76.9044 147.1 76.826 147.026C76.7466 146.954 76.6127 146.917 76.4244 146.917H75.5311C75.3377 146.917 75.2044 146.95 75.1311 147.016C75.0568 147.082 75.0196 147.159 75.0196 147.249V147.291C75.0196 147.477 74.8771 147.569 74.5921 147.569C74.307 147.569 74.1645 147.477 74.1645 147.291V147.243C74.1645 147.097 74.2017 146.974 74.276 146.874C74.3493 146.775 74.4496 146.691 74.5768 146.623H74.5692C74.7015 146.563 74.8405 146.513 74.986 146.474C75.1306 146.434 75.269 146.415 75.4013 146.415H76.5618C76.6891 146.415 76.8255 146.434 76.971 146.474C77.1156 146.513 77.2515 146.563 77.3787 146.623H77.3711C77.5034 146.691 77.6052 146.779 77.6765 146.887C77.7477 146.996 77.7834 147.122 77.7834 147.265V149.408C77.7834 149.579 77.6434 149.664 77.3635 149.664C77.3075 149.664 77.2556 149.662 77.2077 149.659C77.1588 149.655 77.1156 149.645 77.0779 149.629C77.0392 149.613 77.0087 149.59 76.9863 149.559C76.9629 149.529 76.9512 149.49 76.9512 149.44L76.9436 148.269H75.4013C75.2894 148.269 75.2028 148.278 75.1418 148.296C75.0807 148.314 75.0323 148.342 74.9967 148.382C74.956 148.442 74.927 148.489 74.9097 148.523C74.8913 148.557 74.8822 148.595 74.8822 148.638V148.846C74.8822 148.939 74.9219 149.009 75.0013 149.057C75.0797 149.106 75.2156 149.13 75.409 149.13H76.2641C76.4524 149.13 76.5465 149.213 76.5465 149.381C76.5465 149.452 76.5236 149.512 76.4778 149.559C76.432 149.608 76.3608 149.632 76.2641 149.632ZM79.5928 147.2V149.408C79.5928 149.579 79.4528 149.664 79.1729 149.664C78.8828 149.664 78.7377 149.579 78.7377 149.408V147.195C78.7377 146.903 78.8624 146.7 79.1118 146.586C79.3612 146.472 79.6488 146.415 79.9745 146.415H80.8449C81.0332 146.415 81.1274 146.499 81.1274 146.666C81.1375 146.833 81.0434 146.917 80.8449 146.917H80.0356C79.8524 146.917 79.7328 146.942 79.6768 146.992C79.6208 147.042 79.5928 147.111 79.5928 147.2ZM85.4486 148.531V148.782C85.4486 149.075 85.3112 149.29 85.0363 149.429C84.7666 149.564 84.4968 149.632 84.227 149.632H82.9444C82.6747 149.632 82.4125 149.564 82.158 149.429C82.0359 149.358 81.9417 149.268 81.8756 149.16C81.8094 149.051 81.7763 148.925 81.7763 148.782V147.259C81.7763 146.971 81.9035 146.757 82.158 146.618C82.2853 146.554 82.4161 146.503 82.5505 146.465C82.6859 146.428 82.8172 146.41 82.9444 146.41H84.227C84.3492 146.41 84.4841 146.426 84.6317 146.46C84.7793 146.494 84.9167 146.54 85.0439 146.597C85.1661 146.657 85.2638 146.741 85.3371 146.848C85.4114 146.955 85.4486 147.081 85.4486 147.227V147.494C85.4486 147.665 85.3086 147.751 85.0287 147.751C84.7487 147.751 84.6088 147.665 84.6088 147.494V147.265C84.6088 147.176 84.5691 147.094 84.4897 147.021C84.4113 146.948 84.2779 146.912 84.0896 146.912H83.1353C82.947 146.912 82.8131 146.948 82.7337 147.021C82.6553 147.094 82.6161 147.176 82.6161 147.265V148.777C82.6161 148.863 82.6553 148.943 82.7337 149.018C82.8131 149.092 82.947 149.13 83.1353 149.13H84.0896C84.2779 149.13 84.4113 149.092 84.4897 149.018C84.5691 148.943 84.6088 148.863 84.6088 148.777V148.531C84.6088 148.364 84.7487 148.28 85.0287 148.28C85.3086 148.28 85.4486 148.364 85.4486 148.531ZM87.2427 146.917V149.408C87.2427 149.579 87.1028 149.664 86.8228 149.664C86.5429 149.664 86.4029 149.579 86.4029 149.408V145.613C86.4029 145.442 86.5429 145.357 86.8228 145.357C87.1028 145.357 87.2427 145.442 87.2427 145.613V146.415H88.8537C89.1132 146.415 89.383 146.483 89.6629 146.618C89.9378 146.753 90.0752 146.967 90.0752 147.259V149.408C90.0752 149.579 89.9352 149.664 89.6553 149.664C89.3754 149.664 89.2354 149.579 89.2354 149.408V147.307C89.2354 147.215 89.1947 147.126 89.1132 147.04L89.1209 147.045C89.0547 146.96 88.9198 146.917 88.7162 146.917H87.2427ZM97.0441 148.531V148.782C97.0441 149.075 96.9067 149.29 96.6319 149.429C96.3621 149.564 96.0924 149.632 95.8226 149.632H94.54C94.2702 149.632 94.0081 149.564 93.7536 149.429C93.6314 149.358 93.5373 149.268 93.4711 149.16C93.4049 149.051 93.3719 148.925 93.3719 148.782V147.259C93.3719 146.971 93.4991 146.757 93.7536 146.618C93.8808 146.554 94.0122 146.503 94.1475 146.465C94.2819 146.428 94.4127 146.41 94.54 146.41H95.8226C95.9448 146.41 96.0796 146.426 96.2272 146.46C96.3748 146.494 96.5123 146.54 96.6395 146.597C96.7617 146.657 96.8599 146.741 96.9342 146.848C97.0075 146.955 97.0441 147.081 97.0441 147.227V147.494C97.0441 147.665 96.9042 147.751 96.6242 147.751C96.3443 147.751 96.2043 147.665 96.2043 147.494V147.265C96.2043 147.176 96.1651 147.094 96.0868 147.021C96.0074 146.948 95.8735 146.912 95.6852 146.912H94.7308C94.5425 146.912 94.4092 146.948 94.3308 147.021C94.2514 147.094 94.2117 147.176 94.2117 147.265V148.777C94.2117 148.863 94.2514 148.943 94.3308 149.018C94.4092 149.092 94.5425 149.13 94.7308 149.13H95.6852C95.8735 149.13 96.0074 149.092 96.0868 149.018C96.1651 148.943 96.2043 148.863 96.2043 148.777V148.531C96.2043 148.364 96.3443 148.28 96.6242 148.28C96.9042 148.28 97.0441 148.364 97.0441 148.531ZM100.151 149.632H99.1513C98.9935 149.632 98.8434 149.617 98.7009 149.586C98.5584 149.556 98.4209 149.513 98.2886 149.456V149.461C98.0392 149.351 97.9145 149.148 97.9145 148.852V148.59C97.9145 148.444 97.9511 148.316 98.0244 148.207C98.0988 148.099 98.2021 148.013 98.3344 147.949H98.3268C98.454 147.888 98.5889 147.842 98.7314 147.812C98.8739 147.782 99.0114 147.767 99.1437 147.767H100.831V147.27C100.831 147.181 100.791 147.1 100.712 147.026C100.633 146.954 100.5 146.917 100.312 146.917H99.4185C99.2251 146.917 99.0913 146.95 99.0169 147.016C98.9437 147.082 98.907 147.159 98.907 147.249V147.291C98.907 147.477 98.7645 147.569 98.4795 147.569C98.1944 147.569 98.0519 147.477 98.0519 147.291V147.243C98.0519 147.097 98.0886 146.974 98.1619 146.874C98.2362 146.775 98.337 146.691 98.4642 146.623H98.4566C98.5889 146.563 98.7273 146.513 98.8719 146.474C99.0175 146.434 99.1564 146.415 99.2887 146.415H100.449C100.576 146.415 100.712 146.434 100.857 146.474C101.002 146.513 101.139 146.563 101.266 146.623H101.258C101.391 146.691 101.493 146.779 101.564 146.887C101.635 146.996 101.671 147.122 101.671 147.265V149.408C101.671 149.579 101.531 149.664 101.251 149.664C101.195 149.664 101.142 149.662 101.094 149.659C101.046 149.655 101.002 149.645 100.964 149.629C100.926 149.613 100.896 149.59 100.872 149.559C100.85 149.529 100.839 149.49 100.839 149.44L100.831 148.269H99.2887C99.1768 148.269 99.0902 148.278 99.0292 148.296C98.9681 148.314 98.9197 148.342 98.8841 148.382C98.8434 148.442 98.8139 148.489 98.7955 148.523C98.7782 148.557 98.7696 148.595 98.7696 148.638V148.846C98.7696 148.939 98.8088 149.009 98.8872 149.057C98.9666 149.106 99.103 149.13 99.2964 149.13H100.151C100.34 149.13 100.434 149.213 100.434 149.381C100.434 149.452 100.411 149.512 100.365 149.559C100.319 149.608 100.248 149.632 100.151 149.632ZM105.022 149.424V147.307C105.022 147.261 105.012 147.215 104.992 147.171C104.971 147.126 104.946 147.085 104.916 147.045C104.849 146.96 104.712 146.917 104.503 146.917H104.015C103.806 146.917 103.666 146.96 103.595 147.045C103.534 147.127 103.503 147.215 103.503 147.307V149.424C103.503 149.591 103.363 149.675 103.083 149.675C102.793 149.675 102.648 149.591 102.648 149.424V147.259C102.648 146.967 102.785 146.753 103.06 146.618C103.34 146.483 103.613 146.415 103.877 146.415H104.648C104.765 146.415 104.895 146.431 105.038 146.463C105.18 146.495 105.318 146.545 105.45 146.613C105.577 146.545 105.711 146.495 105.85 146.463C105.99 146.431 106.124 146.415 106.252 146.415H107.015C107.285 146.415 107.555 146.483 107.824 146.618C108.104 146.75 108.244 146.964 108.244 147.259V149.424C108.244 149.591 108.102 149.675 107.817 149.675C107.532 149.675 107.389 149.591 107.389 149.424V147.307C107.389 147.261 107.382 147.215 107.366 147.168C107.351 147.122 107.323 147.079 107.282 147.04L107.29 147.045C107.249 146.999 107.198 146.966 107.137 146.946C107.076 146.927 106.987 146.917 106.87 146.917H106.389C106.175 146.917 106.035 146.96 105.969 147.045C105.903 147.124 105.87 147.211 105.87 147.307V149.424C105.87 149.591 105.73 149.675 105.45 149.675C105.165 149.675 105.022 149.591 105.022 149.424ZM111.625 149.632H110.716C110.533 149.632 110.436 149.548 110.426 149.381C110.426 149.213 110.523 149.13 110.716 149.13H111.487C111.676 149.13 111.81 149.092 111.889 149.018C111.967 148.943 112.007 148.863 112.007 148.777V147.27C112.007 147.181 111.967 147.098 111.889 147.021C111.81 146.945 111.673 146.91 111.48 146.917H110.014V150.129C110.014 150.297 109.874 150.38 109.594 150.38C109.314 150.38 109.174 150.295 109.174 150.124V146.73C109.174 146.605 109.22 146.522 109.312 146.479C109.403 146.436 109.515 146.415 109.647 146.415H111.625C111.757 146.415 111.891 146.431 112.026 146.463C112.161 146.495 112.299 146.54 112.442 146.597C112.564 146.657 112.662 146.742 112.736 146.85C112.81 146.959 112.846 147.086 112.846 147.233V148.814C112.846 149.107 112.712 149.315 112.442 149.44C112.157 149.568 111.884 149.632 111.625 149.632ZM114.663 146.65V149.408C114.663 149.579 114.523 149.664 114.244 149.664C113.959 149.664 113.816 149.579 113.816 149.408V146.65C113.816 146.479 113.959 146.393 114.244 146.393C114.523 146.393 114.663 146.479 114.663 146.65ZM114.824 145.72C114.824 145.834 114.768 145.93 114.656 146.009C114.544 146.087 114.406 146.126 114.244 146.126C114.081 146.126 113.942 146.087 113.828 146.009C113.713 145.93 113.656 145.834 113.656 145.72C113.656 145.603 113.713 145.505 113.828 145.426C113.942 145.348 114.081 145.309 114.244 145.309C114.406 145.309 114.544 145.348 114.656 145.426C114.768 145.505 114.824 145.603 114.824 145.72ZM116.565 147.307V149.408C116.565 149.579 116.425 149.664 116.145 149.664C115.865 149.664 115.725 149.579 115.725 149.408V147.259C115.725 147.113 115.758 146.987 115.824 146.88C115.89 146.773 115.994 146.686 116.137 146.618C116.407 146.483 116.676 146.415 116.946 146.415H118.175C118.435 146.415 118.705 146.483 118.985 146.618C119.26 146.753 119.397 146.967 119.397 147.259V149.408C119.397 149.579 119.257 149.664 118.977 149.664C118.697 149.664 118.557 149.579 118.557 149.408V147.307C118.557 147.215 118.516 147.126 118.435 147.04L118.443 147.045C118.376 146.96 118.242 146.917 118.038 146.917H117.084C116.875 146.917 116.738 146.96 116.671 147.045C116.6 147.12 116.565 147.208 116.565 147.307ZM122.535 149.258H121.611C121.479 149.258 121.342 149.242 121.202 149.21C121.062 149.178 120.926 149.132 120.794 149.071C120.519 148.946 120.382 148.736 120.382 148.44V147.233C120.382 147.083 120.418 146.955 120.492 146.848C120.566 146.741 120.667 146.657 120.794 146.597C120.926 146.54 121.061 146.495 121.199 146.463C121.336 146.431 121.471 146.415 121.603 146.415H122.886C123.013 146.415 123.146 146.434 123.283 146.474C123.42 146.513 123.548 146.563 123.665 146.623C123.782 146.691 123.876 146.78 123.947 146.89C124.018 147.001 124.054 147.126 124.054 147.265V149.531C124.054 149.68 124.02 149.808 123.95 149.913C123.882 150.018 123.787 150.106 123.665 150.177C123.548 150.245 123.421 150.298 123.286 150.335C123.152 150.372 123.018 150.391 122.886 150.391H121.603C121.334 150.391 121.061 150.336 120.786 150.225C120.644 150.168 120.541 150.095 120.477 150.006C120.413 149.917 120.382 149.814 120.382 149.696V149.632C120.382 149.561 120.415 149.504 120.481 149.461C120.547 149.418 120.652 149.397 120.794 149.397C121.079 149.418 121.222 149.497 121.222 149.632V149.691C121.222 149.73 121.261 149.773 121.339 149.819C121.419 149.865 121.552 149.889 121.741 149.889H122.695C122.883 149.889 123.017 149.851 123.095 149.776C123.175 149.702 123.214 149.618 123.214 149.525V147.27C123.214 147.181 123.175 147.1 123.095 147.026C123.017 146.954 122.883 146.917 122.695 146.917H121.741C121.552 146.917 121.419 146.954 121.339 147.026C121.261 147.1 121.222 147.181 121.222 147.27V148.398C121.222 148.487 121.261 148.57 121.339 148.647C121.419 148.723 121.552 148.761 121.741 148.761H122.535C122.718 148.761 122.81 148.843 122.81 149.007C122.81 149.082 122.788 149.142 122.744 149.189C122.701 149.235 122.632 149.258 122.535 149.258ZM128.229 146.65V149.408C128.229 149.579 128.089 149.664 127.809 149.664C127.524 149.664 127.381 149.579 127.381 149.408V146.65C127.381 146.479 127.524 146.393 127.809 146.393C128.089 146.393 128.229 146.479 128.229 146.65ZM128.389 145.72C128.389 145.834 128.333 145.93 128.221 146.009C128.109 146.087 127.972 146.126 127.809 146.126C127.646 146.126 127.508 146.087 127.394 146.009C127.279 145.93 127.221 145.834 127.221 145.72C127.221 145.603 127.279 145.505 127.394 145.426C127.508 145.348 127.646 145.309 127.809 145.309C127.972 145.309 128.109 145.348 128.221 145.426C128.333 145.505 128.389 145.603 128.389 145.72ZM130.13 147.307V149.408C130.13 149.579 129.99 149.664 129.71 149.664C129.43 149.664 129.29 149.579 129.29 149.408V147.259C129.29 147.113 129.323 146.987 129.389 146.88C129.455 146.773 129.56 146.686 129.702 146.618C129.972 146.483 130.242 146.415 130.512 146.415H131.741C132 146.415 132.27 146.483 132.55 146.618C132.825 146.753 132.962 146.967 132.962 147.259V149.408C132.962 149.579 132.822 149.664 132.542 149.664C132.262 149.664 132.122 149.579 132.122 149.408V147.307C132.122 147.215 132.082 147.126 132 147.04L132.008 147.045C131.942 146.96 131.807 146.917 131.603 146.917H130.649C130.44 146.917 130.303 146.96 130.237 147.045C130.165 147.12 130.13 147.208 130.13 147.307ZM135.007 146.917V149.408C135.007 149.579 134.865 149.664 134.581 149.664C134.301 149.664 134.161 149.579 134.161 149.408V146.917H133.793C133.61 146.917 133.513 146.833 133.503 146.666C133.503 146.499 133.6 146.415 133.793 146.415H134.161V146.158C134.161 146.012 134.19 145.888 134.248 145.786C134.306 145.685 134.401 145.608 134.533 145.554V145.56C134.667 145.503 134.803 145.458 134.943 145.426C135.083 145.394 135.232 145.378 135.389 145.378H135.573C135.761 145.378 135.854 145.462 135.854 145.629C135.864 145.797 135.771 145.88 135.573 145.88H135.45C135.354 145.88 135.277 145.886 135.218 145.899C135.159 145.911 135.114 145.93 135.083 145.955C135.054 145.98 135.033 146.01 135.022 146.046C135.012 146.082 135.007 146.121 135.007 146.164V146.415H135.579C135.779 146.415 135.873 146.499 135.862 146.666C135.862 146.833 135.768 146.917 135.579 146.917H135.007ZM137.732 146.415H138.954C139.086 146.415 139.223 146.434 139.363 146.474C139.503 146.513 139.639 146.563 139.771 146.623H139.763C139.896 146.691 139.997 146.779 140.069 146.887C140.14 146.996 140.176 147.122 140.176 147.265V148.782C140.176 149.075 140.038 149.29 139.763 149.429C139.493 149.564 139.224 149.632 138.954 149.632H137.732C137.6 149.632 137.465 149.616 137.328 149.584C137.19 149.552 137.055 149.5 136.923 149.429C136.648 149.294 136.511 149.078 136.511 148.782V147.265C136.511 147.122 136.547 146.996 136.618 146.887C136.689 146.779 136.791 146.691 136.923 146.623H136.916C137.043 146.563 137.178 146.513 137.32 146.474C137.463 146.434 137.6 146.415 137.732 146.415ZM137.87 149.13H138.817C139.005 149.13 139.139 149.092 139.218 149.018C139.297 148.943 139.336 148.863 139.336 148.777V147.27C139.336 147.181 139.297 147.1 139.218 147.026C139.139 146.954 139.005 146.917 138.817 146.917H137.87C137.682 146.917 137.548 146.954 137.47 147.026C137.39 147.1 137.351 147.181 137.351 147.27V148.777C137.351 148.863 137.39 148.943 137.47 149.018C137.548 149.092 137.682 149.13 137.87 149.13ZM141.962 147.2V149.408C141.962 149.579 141.822 149.664 141.542 149.664C141.252 149.664 141.107 149.579 141.107 149.408V147.195C141.107 146.903 141.232 146.7 141.481 146.586C141.73 146.472 142.018 146.415 142.344 146.415H143.214C143.402 146.415 143.497 146.499 143.497 146.666C143.507 146.833 143.413 146.917 143.214 146.917H142.405C142.222 146.917 142.102 146.942 142.046 146.992C141.99 147.042 141.962 147.111 141.962 147.2ZM146.512 149.424V147.307C146.512 147.261 146.502 147.215 146.482 147.171C146.461 147.126 146.436 147.085 146.405 147.045C146.339 146.96 146.202 146.917 145.993 146.917H145.505C145.296 146.917 145.156 146.96 145.085 147.045C145.024 147.127 144.993 147.215 144.993 147.307V149.424C144.993 149.591 144.853 149.675 144.573 149.675C144.283 149.675 144.138 149.591 144.138 149.424V147.259C144.138 146.967 144.275 146.753 144.55 146.618C144.83 146.483 145.102 146.415 145.367 146.415H146.138C146.255 146.415 146.385 146.431 146.528 146.463C146.67 146.495 146.808 146.545 146.94 146.613C147.067 146.545 147.2 146.495 147.34 146.463C147.48 146.431 147.614 146.415 147.741 146.415H148.505C148.775 146.415 149.044 146.483 149.314 146.618C149.594 146.75 149.734 146.964 149.734 147.259V149.424C149.734 149.591 149.592 149.675 149.307 149.675C149.022 149.675 148.879 149.591 148.879 149.424V147.307C148.879 147.261 148.871 147.215 148.856 147.168C148.841 147.122 148.813 147.079 148.772 147.04L148.78 147.045C148.739 146.999 148.688 146.966 148.627 146.946C148.566 146.927 148.477 146.917 148.36 146.917H147.879C147.665 146.917 147.525 146.96 147.459 147.045C147.393 147.124 147.36 147.211 147.36 147.307V149.424C147.36 149.591 147.22 149.675 146.94 149.675C146.655 149.675 146.512 149.591 146.512 149.424ZM152.817 149.632H151.817C151.659 149.632 151.509 149.617 151.366 149.586C151.224 149.556 151.087 149.513 150.954 149.456V149.461C150.705 149.351 150.58 149.148 150.58 148.852V148.59C150.58 148.444 150.617 148.316 150.692 148.207C150.765 148.099 150.868 148.013 151 147.949H150.992C151.12 147.888 151.254 147.842 151.397 147.812C151.539 147.782 151.677 147.767 151.809 147.767H153.497V147.27C153.497 147.181 153.457 147.1 153.379 147.026C153.3 146.954 153.166 146.917 152.977 146.917H152.084C151.891 146.917 151.757 146.95 151.684 147.016C151.61 147.082 151.573 147.159 151.573 147.249V147.291C151.573 147.477 151.43 147.569 151.145 147.569C150.86 147.569 150.717 147.477 150.717 147.291V147.243C150.717 147.097 150.755 146.974 150.829 146.874C150.902 146.775 151.003 146.691 151.13 146.623H151.122C151.254 146.563 151.393 146.513 151.539 146.474C151.684 146.434 151.822 146.415 151.954 146.415H153.115C153.242 146.415 153.378 146.434 153.524 146.474C153.669 146.513 153.804 146.563 153.932 146.623H153.924C154.056 146.691 154.158 146.779 154.229 146.887C154.301 146.996 154.336 147.122 154.336 147.265V149.408C154.336 149.579 154.196 149.664 153.916 149.664C153.86 149.664 153.809 149.662 153.761 149.659C153.712 149.655 153.669 149.645 153.631 149.629C153.592 149.613 153.562 149.59 153.539 149.559C153.516 149.529 153.504 149.49 153.504 149.44L153.497 148.269H151.954C151.842 148.269 151.756 148.278 151.695 148.296C151.634 148.314 151.585 148.342 151.55 148.382C151.509 148.442 151.48 148.489 151.463 148.523C151.444 148.557 151.435 148.595 151.435 148.638V148.846C151.435 148.939 151.475 149.009 151.554 149.057C151.633 149.106 151.769 149.13 151.962 149.13H152.817C153.005 149.13 153.1 149.213 153.1 149.381C153.1 149.452 153.077 149.512 153.031 149.559C152.985 149.608 152.914 149.632 152.817 149.632ZM156.955 146.917H156.321V148.863C156.321 148.955 156.349 149.026 156.405 149.076C156.461 149.126 156.581 149.151 156.764 149.151H156.963C157.161 149.151 157.255 149.233 157.245 149.397C157.245 149.564 157.151 149.648 156.963 149.648H156.711C156.548 149.648 156.395 149.633 156.253 149.602C156.11 149.572 155.973 149.529 155.84 149.472V149.477C155.591 149.363 155.466 149.16 155.466 148.868V146.917H155.169C154.985 146.917 154.889 146.833 154.878 146.666C154.878 146.499 154.975 146.415 155.169 146.415H155.466V145.843C155.466 145.672 155.611 145.586 155.901 145.586C156.181 145.586 156.321 145.672 156.321 145.843V146.415H156.955C157.154 146.415 157.248 146.499 157.238 146.666C157.238 146.833 157.143 146.917 156.955 146.917ZM158.772 146.65V149.408C158.772 149.579 158.632 149.664 158.352 149.664C158.067 149.664 157.925 149.579 157.925 149.408V146.65C157.925 146.479 158.067 146.393 158.352 146.393C158.632 146.393 158.772 146.479 158.772 146.65ZM158.932 145.72C158.932 145.834 158.876 145.93 158.764 146.009C158.652 146.087 158.515 146.126 158.352 146.126C158.189 146.126 158.05 146.087 157.935 146.009C157.821 145.93 157.764 145.834 157.764 145.72C157.764 145.603 157.821 145.505 157.935 145.426C158.05 145.348 158.189 145.309 158.352 145.309C158.515 145.309 158.652 145.348 158.764 145.426C158.876 145.505 158.932 145.603 158.932 145.72ZM161.055 146.415H162.276C162.409 146.415 162.545 146.434 162.684 146.474C162.825 146.513 162.961 146.563 163.093 146.623H163.086C163.218 146.691 163.32 146.779 163.391 146.887C163.462 146.996 163.498 147.122 163.498 147.265V148.782C163.498 149.075 163.361 149.29 163.086 149.429C162.816 149.564 162.546 149.632 162.276 149.632H161.055C160.923 149.632 160.788 149.616 160.65 149.584C160.513 149.552 160.378 149.5 160.246 149.429C159.971 149.294 159.833 149.078 159.833 148.782V147.265C159.833 147.122 159.869 146.996 159.94 146.887C160.011 146.779 160.113 146.691 160.246 146.623H160.238C160.365 146.563 160.5 146.513 160.643 146.474C160.785 146.434 160.923 146.415 161.055 146.415ZM161.192 149.13H162.139C162.327 149.13 162.461 149.092 162.539 149.018C162.618 148.943 162.658 148.863 162.658 148.777V147.27C162.658 147.181 162.618 147.1 162.539 147.026C162.461 146.954 162.327 146.917 162.139 146.917H161.192C161.004 146.917 160.87 146.954 160.791 147.026C160.712 147.1 160.673 147.181 160.673 147.27V148.777C160.673 148.863 160.712 148.943 160.791 149.018C160.87 149.092 161.004 149.13 161.192 149.13ZM165.298 147.307V149.408C165.298 149.579 165.158 149.664 164.878 149.664C164.598 149.664 164.458 149.579 164.458 149.408V147.259C164.458 147.113 164.491 146.987 164.558 146.88C164.624 146.773 164.728 146.686 164.871 146.618C165.14 146.483 165.41 146.415 165.68 146.415H166.909C167.169 146.415 167.438 146.483 167.718 146.618C167.993 146.753 168.131 146.967 168.131 147.259V149.408C168.131 149.579 167.991 149.664 167.711 149.664C167.431 149.664 167.291 149.579 167.291 149.408V147.307C167.291 147.215 167.25 147.126 167.169 147.04L167.176 147.045C167.11 146.96 166.975 146.917 166.772 146.917H165.817C165.609 146.917 165.471 146.96 165.405 147.045C165.334 147.12 165.298 147.208 165.298 147.307Z" fill="#DDDFE2"/>
</g>
</g>
</g>
</g>
<g clip-path="url(#clip10_89_465)">
<g clip-path="url(#clip11_89_465)">
<path d="M149.873 59.724C135.114 59.724 123.107 68.1292 123.106 78.4604C123.106 80.557 123.598 82.6154 124.566 84.5795C129.013 93.5475 136.663 101.658 146.666 108.018C147.524 108.615 148.662 108.944 149.873 108.944C151.084 108.944 152.221 108.615 153.055 108.034C163.08 101.659 170.731 93.548 175.18 84.5779C176.147 82.6143 176.639 80.5554 176.639 78.4599C176.639 68.1292 164.632 59.724 149.873 59.724ZM149.873 92.6363C138.652 92.6363 129.523 86.2472 129.523 78.3929C129.523 70.5386 138.652 64.1485 149.873 64.1485C161.093 64.1485 170.222 70.5376 170.222 78.3924C170.222 86.2472 161.093 92.6363 149.873 92.6363Z" fill="#DDDFE2"/>
<path d="M163.117 84.3233L150.721 69.294L151.867 67.9045C152.07 67.6577 151.949 67.3428 151.597 67.2005C151.245 67.0583 150.795 67.1423 150.591 67.3892L149.871 68.2627L149.15 67.3892C148.946 67.1428 148.497 67.0578 148.144 67.2005C147.792 67.3428 147.671 67.6582 147.875 67.9045L149.02 69.294L136.559 84.4017C136.271 84.7526 136.643 85.1747 137.197 85.1747H162.544C162.549 85.1747 162.555 85.1747 162.559 85.1747C163.159 85.1747 163.471 84.6965 163.117 84.3233ZM144.918 84.144L149.872 78.1388L154.825 84.144H144.918ZM156.524 84.144L150.509 76.8504C150.377 76.6906 150.134 76.5927 149.871 76.5927C149.608 76.5927 149.365 76.6906 149.234 76.8504L143.217 84.144H138.473L149.871 70.3247L161.269 84.144H156.524Z" fill="#DDDFE2"/>
</g>
</g>
</g>
</g>
</g>
</g>
<defs>
<clipPath id="clip0_89_465">
<rect width="300" height="210" fill="white"/>
</clipPath>
<clipPath id="clip1_89_465">
<rect width="210" height="90.552" fill="white" transform="translate(44.8727 59.7815)"/>
</clipPath>
<clipPath id="clip2_89_465">
<rect width="209.69" height="90.667" fill="white" transform="translate(45.0275 59.724)"/>
</clipPath>
<clipPath id="clip3_89_465">
<rect width="209.69" height="90.667" fill="white" transform="translate(45.0275 59.724)"/>
</clipPath>
<clipPath id="clip4_89_465">
<rect width="209.69" height="35.6153" fill="white" transform="translate(45.0275 114.776)"/>
</clipPath>
<clipPath id="clip5_89_465">
<rect width="209.69" height="35.6153" fill="white" transform="translate(45.0275 114.776)"/>
</clipPath>
<clipPath id="clip6_89_465">
<rect width="209.69" height="24.7014" fill="white" transform="translate(45.0275 114.776)"/>
</clipPath>
<clipPath id="clip7_89_465">
<rect width="209.69" height="24.7014" fill="white" transform="translate(45.0275 114.776)"/>
</clipPath>
<clipPath id="clip8_89_465">
<rect width="123.109" height="5.08241" fill="white" transform="translate(45.0275 145.309)"/>
</clipPath>
<clipPath id="clip9_89_465">
<rect width="123.109" height="5.08241" fill="white" transform="translate(45.0275 145.309)"/>
</clipPath>
<clipPath id="clip10_89_465">
<rect width="53.5327" height="49.2203" fill="white" transform="translate(123.106 59.724)"/>
</clipPath>
<clipPath id="clip11_89_465">
<rect width="53.5327" height="49.2203" fill="white" transform="translate(123.106 59.724)"/>
</clipPath>
</defs>
</svg>
