<svg width="200" height="100" viewBox="0 0 200 100" fill="none" xmlns="http://www.w3.org/2000/svg">
<g clip-path="url(#clip0_37_719)">
<g clip-path="url(#clip1_37_719)">
<g clip-path="url(#clip2_37_719)">
<g clip-path="url(#clip3_37_719)">
<g clip-path="url(#clip4_37_719)">
<g clip-path="url(#clip5_37_719)">
<g clip-path="url(#clip6_37_719)">
<g clip-path="url(#clip7_37_719)">
<path d="M19.6862 83.3128L11.9117 64.037L4.17241 83.3128V83.2841C4.03105 83.571 3.83786 83.8043 3.59285 83.984C3.34312 84.1676 3.04156 84.2594 2.68817 84.2594C2.49969 84.2594 2.31829 84.246 2.14395 84.2193C1.9649 84.1887 1.78113 84.1542 1.59266 84.116H1.628C0.285116 83.7718 -0.209631 83.1598 0.14376 82.2802L8.20105 62.402C8.31885 62.096 8.52617 61.8379 8.82302 61.6275C9.11516 61.4172 9.46148 61.2929 9.86199 61.2546C10.2625 61.1973 10.6512 61.1533 11.0282 61.1227C11.4051 61.0959 11.6996 61.0825 11.9117 61.0825C12.1237 61.0825 12.4182 61.0959 12.7951 61.1227C13.1721 61.1533 13.5608 61.1877 13.9613 61.2259C14.2911 61.2642 14.6163 61.4076 14.9367 61.6562C15.2524 61.9048 15.4927 62.1534 15.6576 62.402C16.9769 65.6911 18.3151 69.0032 19.6721 72.3382C21.0244 75.6771 22.3602 78.9911 23.6795 82.2802C24.0094 83.1598 23.5146 83.7718 22.1953 84.116C22.0068 84.1542 21.8372 84.1887 21.6864 84.2193C21.5309 84.246 21.3589 84.2594 21.1705 84.2594C20.8406 84.2594 20.5414 84.1676 20.2729 83.984C19.9996 83.8043 19.804 83.571 19.6862 83.2841V83.3128ZM14.5621 77.117C14.5621 77.729 14.2982 78.2491 13.7705 78.6775C13.238 79.1096 12.5949 79.3257 11.841 79.3257C11.0871 79.3257 10.451 79.1096 9.93267 78.6775C9.41436 78.2491 9.15521 77.729 9.15521 77.117C9.15521 76.5051 9.41436 75.983 9.93267 75.5509C10.451 75.1225 11.0871 74.9083 11.841 74.9083C12.5949 74.9083 13.238 75.1225 13.7705 75.5509C14.2982 75.983 14.5621 76.5051 14.5621 77.117ZM30.5707 62.316V82.8826C30.5707 83.7813 29.9228 84.2307 28.627 84.2307C27.3077 84.2307 26.648 83.7813 26.648 82.8826V62.316C26.648 61.4172 27.3077 60.9678 28.627 60.9678C29.9228 60.9678 30.5707 61.4172 30.5707 62.316ZM39.4761 62.316V82.8826C39.4761 83.7813 38.8282 84.2307 37.5324 84.2307C36.2131 84.2307 35.5535 83.7813 35.5535 82.8826V62.316C35.5535 61.4172 36.2131 60.9678 37.5324 60.9678C38.8282 60.9678 39.4761 61.4172 39.4761 62.316ZM74.3133 77.5186V79.4118C74.3133 80.9607 73.6772 82.1177 72.405 82.8826C71.7924 83.2459 71.1634 83.527 70.5179 83.7259C69.8676 83.9286 69.2362 84.0299 68.6237 84.0299H60.9198C60.3073 84.0299 59.6782 83.9286 59.0327 83.7259C58.3825 83.527 57.7511 83.2459 57.1385 82.8826C56.526 82.5001 56.0548 82.0278 55.725 81.4656C55.3951 80.8995 55.2302 80.2149 55.2302 79.4118V65.7867C55.2302 65.0218 55.3951 64.3487 55.725 63.7674C56.0548 63.1822 56.526 62.708 57.1385 62.3446H57.1032C57.7157 62.0195 58.3518 61.7518 59.0115 61.5415C59.6712 61.3311 60.3073 61.2259 60.9198 61.2259H68.6237C69.2362 61.2259 69.8723 61.3311 70.532 61.5415C71.1917 61.7518 71.8278 62.0195 72.4403 62.3446H72.405C73.0175 62.708 73.4887 63.1822 73.8185 63.7674C74.1484 64.3487 74.3133 65.0218 74.3133 65.7867V67.766C74.3133 68.6839 73.6065 69.1428 72.1929 69.1428C70.8029 69.1428 70.1079 68.6839 70.1079 67.766V66.0449C70.1079 65.5668 69.9312 65.127 69.5779 64.7254C69.2245 64.3239 68.6119 64.1231 67.7402 64.1231H61.8033C60.9316 64.1231 60.319 64.3239 59.9656 64.7254C59.6123 65.127 59.4356 65.5668 59.4356 66.0449V79.1823C59.4356 79.6795 59.6123 80.1289 59.9656 80.5305C60.319 80.932 60.9316 81.1328 61.8033 81.1328H67.7402C68.6119 81.1328 69.2245 80.932 69.5779 80.5305C69.9312 80.1289 70.1079 79.6795 70.1079 79.1823V77.5186C70.1079 76.6198 70.8029 76.1704 72.1929 76.1704C73.6065 76.1704 74.3133 76.6198 74.3133 77.5186ZM89.085 84.0013H84.4556C83.7252 84.0013 83.0302 83.919 82.3706 83.7546C81.7109 83.5939 81.0748 83.3606 80.4623 83.0547V83.0834C79.3079 82.4905 78.7307 81.4005 78.7307 79.8134V78.4078C78.7307 77.6238 78.9003 76.9392 79.2395 76.354C79.5835 75.7727 80.0618 75.3099 80.6743 74.9657H80.639C81.228 74.6406 81.8523 74.3958 82.5119 74.2314C83.1716 74.0708 83.8077 73.9904 84.4202 73.9904H92.2302V71.3228C92.2302 70.8447 92.0464 70.4087 91.6789 70.0148C91.3161 69.6247 90.6988 69.4296 89.8271 69.4296H85.6925C84.7972 69.4296 84.1776 69.6056 83.8336 69.9574C83.4944 70.3131 83.3247 70.73 83.3247 71.2081V71.4375C83.3247 72.4319 82.6651 72.9291 81.3457 72.9291C80.0264 72.9291 79.3668 72.4319 79.3668 71.4375V71.1794C79.3668 70.3954 79.5364 69.7356 79.8756 69.2002C80.2196 68.6647 80.6861 68.2153 81.2751 67.852H81.2397C81.8523 67.5269 82.4931 67.2592 83.1622 67.0489C83.836 66.8385 84.4791 66.7333 85.0917 66.7333H90.4632C91.0522 66.7333 91.6812 66.8385 92.3503 67.0489C93.0241 67.2592 93.6555 67.5269 94.2445 67.852H94.2092C94.8217 68.2153 95.2929 68.6877 95.6227 69.269C95.9525 69.8542 96.1175 70.5292 96.1175 71.2941V82.7965C96.1175 83.7144 95.4696 84.1734 94.1738 84.1734C93.9147 84.1734 93.672 84.1638 93.4458 84.1447C93.2244 84.1256 93.0241 84.072 92.8451 83.984C92.6707 83.8999 92.5294 83.7756 92.421 83.6111C92.3173 83.4505 92.2655 83.2363 92.2655 82.9686L92.2302 76.6868H85.0917C84.5734 76.6868 84.1729 76.7346 83.8902 76.8302C83.6074 76.9258 83.3836 77.0788 83.2187 77.2891C83.0302 77.6142 82.8936 77.8666 82.8088 78.0464C82.7287 78.23 82.6886 78.4365 82.6886 78.666V79.7847C82.6886 80.2819 82.87 80.6586 83.2328 80.9148C83.6004 81.1749 84.2318 81.3049 85.127 81.3049H89.085C89.9567 81.3049 90.3925 81.7543 90.3925 82.6531C90.3925 83.0356 90.2865 83.3549 90.0745 83.6111C89.8624 83.8712 89.5326 84.0013 89.085 84.0013ZM111.631 82.8826V71.5236C111.631 71.275 111.582 71.0302 111.483 70.7893C111.393 70.5522 111.276 70.3284 111.129 70.1181C110.823 69.6591 110.189 69.4296 109.228 69.4296H106.959C105.998 69.4296 105.35 69.6591 105.016 70.1181C104.733 70.5579 104.592 71.0264 104.592 71.5236V82.8826C104.592 83.7813 103.944 84.2307 102.648 84.2307C101.31 84.2307 100.641 83.7813 100.641 82.8826V71.2654C100.641 69.6974 101.275 68.55 102.542 67.8233C103.838 67.0967 105.101 66.7333 106.33 66.7333H109.893C110.439 66.7333 111.042 66.8194 111.702 66.9915C112.362 67.1636 112.995 67.4313 113.603 67.7946C114.192 67.4313 114.812 67.1636 115.462 66.9915C116.108 66.8194 116.725 66.7333 117.314 66.7333H120.848C122.101 66.7333 123.352 67.0967 124.601 67.8233C125.896 68.5309 126.544 69.6782 126.544 71.2654V82.8826C126.544 83.7813 125.882 84.2307 124.558 84.2307C123.244 84.2307 122.586 83.7813 122.586 82.8826V71.5236C122.586 71.275 122.551 71.0264 122.48 70.7778C122.41 70.5292 122.278 70.2997 122.085 70.0894L122.127 70.1181C121.938 69.8695 121.703 69.6916 121.42 69.5845C121.137 69.4813 120.725 69.4296 120.183 69.4296H117.957C116.967 69.4296 116.32 69.6591 116.013 70.1181C115.702 70.5388 115.547 71.0073 115.547 71.5236V82.8826C115.547 83.7813 114.899 84.2307 113.603 84.2307C112.289 84.2307 111.631 83.7813 111.631 82.8826ZM142.192 84.0013H137.987C137.139 84.0013 136.691 83.5519 136.644 82.6531C136.644 81.7543 137.092 81.3049 137.987 81.3049H141.556C142.428 81.3049 143.048 81.1041 143.415 80.7026C143.778 80.301 143.959 79.8707 143.959 79.4118V71.3228C143.959 70.8447 143.778 70.3992 143.415 69.9861C143.048 69.5769 142.416 69.3914 141.521 69.4296H134.736V86.6689C134.736 87.5677 134.088 88.017 132.792 88.017C131.497 88.017 130.849 87.5581 130.849 86.6402V68.4257C130.849 67.7564 131.061 67.307 131.485 67.0775C131.909 66.8481 132.427 66.7333 133.04 66.7333H142.192C142.805 66.7333 143.425 66.8194 144.051 66.9915C144.673 67.1636 145.314 67.4026 145.974 67.7086C146.539 68.0337 146.994 68.4869 147.338 69.0682C147.677 69.6534 147.847 70.338 147.847 71.122V79.6126C147.847 81.1806 147.222 82.2993 145.974 82.9686C144.654 83.657 143.394 84.0013 142.192 84.0013ZM156.257 67.9954V82.7965C156.257 83.7144 155.61 84.1734 154.314 84.1734C152.994 84.1734 152.335 83.7144 152.335 82.7965V67.9954C152.335 67.0775 152.994 66.6186 154.314 66.6186C155.61 66.6186 156.257 67.0775 156.257 67.9954ZM157 63.0044C157 63.6163 156.74 64.1326 156.222 64.5533C155.704 64.974 155.068 65.1844 154.314 65.1844C153.56 65.1844 152.919 64.974 152.391 64.5533C151.859 64.1326 151.593 63.6163 151.593 63.0044C151.593 62.3733 151.859 61.8474 152.391 61.4267C152.919 61.006 153.56 60.7957 154.314 60.7957C155.068 60.7957 155.704 61.006 156.222 61.4267C156.74 61.8474 157 62.3733 157 63.0044ZM165.057 71.5236V82.7965C165.057 83.7144 164.409 84.1734 163.113 84.1734C161.817 84.1734 161.17 83.7144 161.17 82.7965V71.2654C161.17 70.4814 161.323 69.8025 161.629 69.2289C161.935 68.6552 162.418 68.1867 163.078 67.8233C164.326 67.0967 165.575 66.7333 166.824 66.7333H172.513C173.715 66.7333 174.964 67.0967 176.259 67.8233C177.531 68.55 178.168 69.6974 178.168 71.2654V82.7965C178.168 83.7144 177.52 84.1734 176.224 84.1734C174.928 84.1734 174.28 83.7144 174.28 82.7965V71.5236C174.28 71.0264 174.092 70.5483 173.715 70.0894L173.75 70.1181C173.444 69.6591 172.82 69.4296 171.877 69.4296H167.46C166.494 69.4296 165.858 69.6591 165.552 70.1181C165.222 70.5196 165.057 70.9882 165.057 71.5236ZM192.692 81.9934H188.416C187.799 81.9934 187.167 81.9073 186.522 81.7352C185.872 81.5631 185.24 81.3145 184.628 80.9894C183.355 80.3201 182.719 79.1919 182.719 77.6047V71.122C182.719 70.3189 182.891 69.6304 183.235 69.0568C183.574 68.4831 184.039 68.0337 184.628 67.7086C185.24 67.4026 185.867 67.1636 186.508 66.9915C187.139 66.8194 187.761 66.7333 188.374 66.7333H194.318C194.907 66.7333 195.517 66.8385 196.148 67.0489C196.789 67.2592 197.378 67.5269 197.915 67.852C198.462 68.2153 198.9 68.6934 199.23 69.2862C199.559 69.879 199.724 70.5483 199.724 71.2941V83.4563C199.724 84.2594 199.564 84.944 199.244 85.51C198.923 86.0723 198.48 86.5446 197.915 86.927C197.378 87.2904 196.796 87.5734 196.169 87.7761C195.543 87.975 194.925 88.0744 194.318 88.0744H188.374C187.13 88.0744 185.872 87.778 184.599 87.1852C183.935 86.8792 183.457 86.4872 183.165 86.0092C182.868 85.5311 182.719 84.9765 182.719 84.3455V84.0013C182.719 83.6188 182.875 83.3128 183.186 83.0834C183.492 82.8539 183.973 82.7391 184.628 82.7391C185.947 82.8539 186.607 83.2746 186.607 84.0013V84.3168C186.607 84.5271 186.79 84.7566 187.158 85.0052C187.525 85.2538 188.145 85.3781 189.017 85.3781H193.434C194.301 85.3781 194.918 85.1773 195.286 84.7757C195.653 84.3741 195.837 83.9248 195.837 83.4276V71.3228C195.837 70.8447 195.653 70.4087 195.286 70.0148C194.918 69.6247 194.301 69.4296 193.434 69.4296H189.017C188.145 69.4296 187.525 69.6247 187.158 70.0148C186.79 70.4087 186.607 70.8447 186.607 71.3228V77.3752C186.607 77.8533 186.79 78.2988 187.158 78.7119C187.525 79.1211 188.145 79.3257 189.017 79.3257H192.692C193.54 79.3257 193.964 79.7655 193.964 80.6452C193.964 81.0468 193.863 81.3719 193.66 81.6205C193.462 81.8691 193.14 81.9934 192.692 81.9934Z" fill="white"/>
</g>
</g>
<g clip-path="url(#clip8_37_719)">
<g clip-path="url(#clip9_37_719)">
<path d="M3.1513 99.2948H0.490063C0.310709 99.2948 0.189523 99.2574 0.126507 99.1827C0.0634906 99.1079 0.0319824 99.0253 0.0319824 98.9348V94.9569C0.0319824 94.8664 0.0634906 94.7846 0.126507 94.7114C0.189523 94.639 0.310709 94.6028 0.490063 94.6028H3.02042C3.19977 94.6028 3.29429 94.7012 3.30399 94.8979C3.31368 95.0986 3.21916 95.1989 3.02042 95.1989H0.889975V98.6987H3.1513C3.33065 98.6987 3.42275 98.7951 3.4276 98.9879C3.43729 99.1925 3.34519 99.2948 3.1513 99.2948ZM2.75138 96.8514C2.75138 96.9891 2.69225 97.1052 2.57397 97.1996C2.45472 97.2941 2.31027 97.3413 2.14061 97.3413C1.9758 97.3413 1.83522 97.2941 1.71888 97.1996C1.60255 97.1052 1.54438 96.9891 1.54438 96.8514C1.54438 96.7137 1.60255 96.5976 1.71888 96.5032C1.83522 96.4088 1.9758 96.3616 2.14061 96.3616C2.31027 96.3616 2.45472 96.4088 2.57397 96.5032C2.69225 96.5976 2.75138 96.7137 2.75138 96.8514ZM6.1979 99.2889H5.24538C5.09511 99.2889 4.95211 99.272 4.81638 99.2382C4.68066 99.2051 4.54978 99.1571 4.42374 99.0941V99.1C4.18622 98.9781 4.06746 98.7538 4.06746 98.4272V98.138C4.06746 97.9767 4.10236 97.8359 4.17216 97.7155C4.24293 97.5959 4.34134 97.5006 4.46737 97.4298H4.4601C4.58128 97.3629 4.70974 97.3126 4.84547 97.2787C4.9812 97.2457 5.11208 97.2292 5.23811 97.2292H6.84503V96.6803C6.84503 96.5819 6.80722 96.4922 6.7316 96.4111C6.65695 96.3309 6.52995 96.2908 6.35059 96.2908H5.49987C5.31567 96.2908 5.18818 96.3269 5.11741 96.3993C5.04761 96.4725 5.0127 96.5583 5.0127 96.6567V96.7039C5.0127 96.9085 4.87698 97.0108 4.60552 97.0108C4.33407 97.0108 4.19834 96.9085 4.19834 96.7039V96.6508C4.19834 96.4894 4.23324 96.3537 4.30304 96.2435C4.37381 96.1334 4.46979 96.0409 4.59098 95.9661H4.58371C4.70974 95.8993 4.84159 95.8442 4.97926 95.8009C5.11789 95.7576 5.25023 95.736 5.37626 95.736H6.48147C6.60266 95.736 6.73208 95.7576 6.86975 95.8009C7.00839 95.8442 7.1383 95.8993 7.25948 95.9661H7.25221C7.37824 96.0409 7.47519 96.1381 7.54306 96.2577C7.61092 96.3781 7.64485 96.517 7.64485 96.6744V99.041C7.64485 99.2299 7.51155 99.3243 7.24494 99.3243C7.19162 99.3243 7.14169 99.3224 7.09515 99.3184C7.04959 99.3145 7.00839 99.3035 6.97155 99.2854C6.93568 99.2681 6.90659 99.2425 6.88429 99.2086C6.86296 99.1756 6.8523 99.1315 6.8523 99.0764L6.84503 97.7839H5.37626C5.26962 97.7839 5.18721 97.7938 5.12904 97.8134C5.07087 97.8331 5.02482 97.8646 4.99089 97.9079C4.95211 97.9748 4.924 98.0267 4.90655 98.0637C4.89006 98.1014 4.88182 98.1439 4.88182 98.1912V98.4213C4.88182 98.5236 4.91915 98.6011 4.9938 98.6539C5.06942 98.7074 5.19933 98.7341 5.38353 98.7341H6.1979C6.37725 98.7341 6.46693 98.8266 6.46693 99.0115C6.46693 99.0902 6.44512 99.1559 6.40149 99.2086C6.35786 99.2622 6.29 99.2889 6.1979 99.2889ZM9.87709 97.2232H10.9445C11.0657 97.2232 11.1956 97.2457 11.3342 97.2905C11.4729 97.3362 11.6028 97.3924 11.724 97.4593H11.7167C11.8427 97.5341 11.9397 97.6305 12.0075 97.7485C12.0744 97.8666 12.1079 98.0082 12.1079 98.1735V98.3505C12.1079 98.6731 11.9775 98.9112 11.7167 99.0646C11.5897 99.1433 11.4612 99.2004 11.3313 99.2358C11.2004 99.2712 11.0715 99.2889 10.9445 99.2889H9.7084C9.58333 99.2889 9.45536 99.2712 9.32448 99.2358C9.19263 99.2004 9.06418 99.1433 8.93911 99.0646C8.67638 98.9151 8.54502 98.6771 8.54502 98.3505V98.2797C8.54502 98.1105 8.67832 98.0279 8.94493 98.0318C9.21638 98.0318 9.35211 98.1144 9.35211 98.2797V98.3446C9.35211 98.439 9.38895 98.5276 9.46263 98.6102C9.53535 98.6928 9.6638 98.7341 9.848 98.7341H10.8078C10.992 98.7341 11.1205 98.6928 11.1932 98.6102C11.2659 98.5276 11.3022 98.439 11.3022 98.3446V98.1794C11.3022 98.1282 11.2935 98.079 11.2761 98.0318C11.2596 97.9846 11.2319 97.9421 11.1932 97.9043C11.1544 97.8673 11.1035 97.837 11.0405 97.8134C10.9765 97.7898 10.8989 97.778 10.8078 97.778H9.74475C9.4985 97.778 9.23965 97.7072 8.9682 97.5656C8.71031 97.4318 8.58137 97.2016 8.58137 96.875V96.6744C8.58137 96.517 8.61579 96.3781 8.68462 96.2577C8.75249 96.1381 8.84944 96.0409 8.97547 95.9661H8.9682C9.08938 95.8993 9.21735 95.8442 9.35211 95.8009C9.48881 95.7576 9.61969 95.736 9.74475 95.736H10.9081C11.0351 95.736 11.165 95.7576 11.2979 95.8009C11.4317 95.8442 11.5616 95.8993 11.6876 95.9661H11.6803C11.8064 96.0409 11.9033 96.1381 11.9712 96.2577C12.0381 96.3781 12.0715 96.517 12.0715 96.6744V96.7275C12.0715 96.8101 12.0381 96.8699 11.9712 96.9069C11.9033 96.9447 11.8035 96.9655 11.6716 96.9695C11.405 96.9734 11.2717 96.8927 11.2717 96.7275V96.6803C11.2717 96.5819 11.2344 96.4922 11.1597 96.4111C11.0851 96.3309 10.9581 96.2908 10.7787 96.2908H9.87709C9.69773 96.2908 9.57025 96.3309 9.49463 96.4111C9.41901 96.4922 9.3812 96.5819 9.3812 96.6803V96.8219C9.3812 96.9242 9.41901 97.0167 9.49463 97.0993C9.57025 97.1819 9.69773 97.2232 9.87709 97.2232ZM13.6639 100.115H13.2858C13.1161 100.115 13.0265 100.023 13.0168 99.8378C13.0168 99.6529 13.1064 99.5604 13.2858 99.5604H13.6057C13.7754 99.5604 13.8869 99.5191 13.9402 99.4365L14.042 99.2181L14.0783 99.1237L12.6605 96.1078V96.1137C12.6217 96.0193 12.6304 95.9386 12.6867 95.8717C12.7419 95.8048 12.8277 95.7556 12.944 95.7242C13.0313 95.7045 13.1016 95.6947 13.1549 95.6947C13.2955 95.6947 13.3827 95.7615 13.4167 95.8953L13.9911 97.058L14.4783 98.0259L15.2563 95.9071C15.2999 95.7655 15.4017 95.6947 15.5617 95.6947C15.6004 95.6947 15.6635 95.7045 15.7507 95.7242C15.867 95.7517 15.9509 95.797 16.0023 95.8599C16.0527 95.9229 16.0634 95.9976 16.0343 96.0842C15.8161 96.6862 15.5946 97.2921 15.3697 97.902C15.1438 98.5118 14.9218 99.1158 14.7037 99.7138C14.6794 99.7571 14.6421 99.8016 14.5917 99.8472C14.5403 99.8921 14.4734 99.9354 14.391 99.9771C14.3086 100.018 14.2068 100.051 14.0856 100.077C13.9644 100.103 13.8239 100.115 13.6639 100.115ZM20.1279 97.2232H21.1968C21.318 97.2232 21.4474 97.2457 21.5851 97.2905C21.7237 97.3362 21.8536 97.3924 21.9748 97.4593H21.9675C22.0935 97.5341 22.1905 97.6305 22.2584 97.7485C22.3262 97.8666 22.3602 98.0082 22.3602 98.1735V98.3505C22.3602 98.6731 22.2293 98.9112 21.9675 99.0646C21.8415 99.1433 21.713 99.2004 21.5821 99.2358C21.4513 99.2712 21.3228 99.2889 21.1968 99.2889H19.9607C19.8347 99.2889 19.7062 99.2712 19.5753 99.2358C19.4444 99.2004 19.316 99.1433 19.1899 99.0646C18.9282 98.9151 18.7973 98.6771 18.7973 98.3505V98.2797C18.7973 98.1105 18.9306 98.0279 19.1972 98.0318C19.4687 98.0318 19.6044 98.1144 19.6044 98.2797V98.3446C19.6044 98.439 19.6408 98.5276 19.7135 98.6102C19.7862 98.6928 19.9146 98.7341 20.0988 98.7341H21.0586C21.2428 98.7341 21.3713 98.6928 21.444 98.6102C21.5167 98.5276 21.5531 98.439 21.5531 98.3446V98.1794C21.5531 98.1282 21.5443 98.079 21.5269 98.0318C21.5104 97.9846 21.4828 97.9421 21.444 97.9043C21.4052 97.8673 21.3543 97.837 21.2913 97.8134C21.2283 97.7898 21.1507 97.778 21.0586 97.778H19.997C19.7498 97.778 19.4905 97.7072 19.219 97.5656C18.9621 97.4318 18.8337 97.2016 18.8337 96.875V96.6744C18.8337 96.517 18.8676 96.3781 18.9355 96.2577C19.0033 96.1381 19.1003 96.0409 19.2263 95.9661H19.219C19.3402 95.8993 19.4687 95.8442 19.6044 95.8009C19.7401 95.7576 19.871 95.736 19.997 95.736H21.1604C21.2865 95.736 21.4159 95.7576 21.5487 95.8009C21.6825 95.8442 21.8124 95.8993 21.9384 95.9661H21.9312C22.0572 96.0409 22.1541 96.1381 22.222 96.2577C22.2899 96.3781 22.3238 96.517 22.3238 96.6744V96.7275C22.3238 96.8101 22.2899 96.8699 22.222 96.9069C22.1541 96.9447 22.0548 96.9655 21.9239 96.9695C21.6573 96.9734 21.524 96.8927 21.524 96.7275V96.6803C21.524 96.5819 21.4862 96.4922 21.4105 96.4111C21.3359 96.3309 21.2089 96.2908 21.0295 96.2908H20.1279C19.9486 96.2908 19.8211 96.3309 19.7455 96.4111C19.6708 96.4922 19.6335 96.5819 19.6335 96.6803V96.8219C19.6335 96.9242 19.6708 97.0167 19.7455 97.0993C19.8211 97.1819 19.9486 97.2232 20.1279 97.2232ZM24.1052 96.6744V98.3446C24.1052 98.439 24.1426 98.5276 24.2172 98.6102C24.2928 98.6928 24.4203 98.7341 24.5997 98.7341H25.5086C25.6879 98.7341 25.8149 98.6975 25.8896 98.6244C25.9652 98.552 26.003 98.4685 26.003 98.3741V98.3092C26.003 98.1243 26.1363 98.0318 26.4029 98.0318C26.6695 98.0318 26.8028 98.1243 26.8028 98.3092V98.38C26.8028 98.5453 26.7699 98.681 26.7039 98.7872C26.639 98.8935 26.5411 98.9859 26.4102 99.0646C26.1533 99.2142 25.8963 99.2889 25.6394 99.2889H24.4179C24.161 99.2889 23.9113 99.2142 23.669 99.0646C23.5526 98.9859 23.4629 98.8868 23.3999 98.7672C23.3369 98.6468 23.3054 98.5079 23.3054 98.3505V96.6685C23.3054 96.3498 23.4266 96.1137 23.669 95.9602C23.7901 95.8894 23.9147 95.8332 24.0427 95.7915C24.1716 95.7505 24.2967 95.7301 24.4179 95.7301H25.6394C25.7558 95.7301 25.8842 95.7486 26.0248 95.7855C26.1654 95.8233 26.2963 95.8737 26.4174 95.9366C26.5338 96.0035 26.6269 96.096 26.6967 96.214C26.7674 96.3321 26.8028 96.4717 26.8028 96.6331V97.4298C26.8028 97.5203 26.7699 97.601 26.7039 97.6718C26.639 97.7426 26.5192 97.778 26.3447 97.778H24.7742C24.5997 97.778 24.5076 97.6856 24.4979 97.5006C24.4979 97.3157 24.59 97.2232 24.7742 97.2232H26.0103L26.003 96.6744C26.003 96.576 25.9652 96.4863 25.8896 96.4052C25.8149 96.325 25.6879 96.2848 25.5086 96.2848H24.5997C24.4203 96.2848 24.2928 96.325 24.2172 96.4052C24.1426 96.4863 24.1052 96.576 24.1052 96.6744ZM29.7753 99.2889H28.8227C28.6725 99.2889 28.5295 99.272 28.3937 99.2382C28.258 99.2051 28.1271 99.1571 28.0011 99.0941V99.1C27.7636 98.9781 27.6448 98.7538 27.6448 98.4272V98.138C27.6448 97.9767 27.6802 97.8359 27.751 97.7155C27.8208 97.5959 27.9187 97.5006 28.0447 97.4298H28.0375C28.1586 97.3629 28.2871 97.3126 28.4228 97.2787C28.5585 97.2457 28.6894 97.2292 28.8155 97.2292H30.4224V96.6803C30.4224 96.5819 30.3851 96.4922 30.3104 96.4111C30.2348 96.3309 30.1073 96.2908 29.9279 96.2908H29.0772C28.893 96.2908 28.766 96.3269 28.6962 96.3993C28.6254 96.4725 28.5901 96.5583 28.5901 96.6567V96.7039C28.5901 96.9085 28.4543 97.0108 28.1829 97.0108C27.9114 97.0108 27.7757 96.9085 27.7757 96.7039V96.6508C27.7757 96.4894 27.8111 96.3537 27.8819 96.2435C27.9517 96.1334 28.0471 96.0409 28.1683 95.9661H28.1611C28.2871 95.8993 28.4194 95.8442 28.5581 95.8009C28.6957 95.7576 28.8276 95.736 28.9536 95.736H30.0588C30.18 95.736 30.3099 95.7576 30.4486 95.8009C30.5862 95.8442 30.7157 95.8993 30.8368 95.9661H30.8296C30.9556 96.0409 31.0525 96.1381 31.1204 96.2577C31.1883 96.3781 31.2222 96.517 31.2222 96.6744V99.041C31.2222 99.2299 31.0889 99.3243 30.8223 99.3243C30.769 99.3243 30.7195 99.3224 30.674 99.3184C30.6274 99.3145 30.5862 99.3035 30.5504 99.2854C30.5135 99.2681 30.4844 99.2425 30.4631 99.2086C30.4408 99.1756 30.4297 99.1315 30.4297 99.0764L30.4224 97.7839H28.9536C28.847 97.7839 28.7646 97.7938 28.7064 97.8134C28.6482 97.8331 28.6022 97.8646 28.5682 97.9079C28.5295 97.9748 28.5018 98.0267 28.4854 98.0637C28.4679 98.1014 28.4592 98.1439 28.4592 98.1912V98.4213C28.4592 98.5236 28.497 98.6011 28.5726 98.6539C28.6473 98.7074 28.7767 98.7341 28.9609 98.7341H29.7753C29.9546 98.7341 30.0443 98.8266 30.0443 99.0115C30.0443 99.0902 30.0225 99.1559 29.9788 99.2086C29.9352 99.2622 29.8674 99.2889 29.7753 99.2889ZM32.9455 96.6036V99.041C32.9455 99.2299 32.8122 99.3243 32.5456 99.3243C32.2692 99.3243 32.1311 99.2299 32.1311 99.041V96.5976C32.1311 96.275 32.2499 96.0507 32.4874 95.9248C32.7249 95.7989 32.9988 95.736 33.309 95.736H34.1379C34.3173 95.736 34.407 95.8284 34.407 96.0134C34.4167 96.1983 34.327 96.2908 34.1379 96.2908H33.3672C33.1927 96.2908 33.0788 96.3183 33.0254 96.3734C32.9721 96.4285 32.9455 96.5052 32.9455 96.6036ZM38.5224 98.0731V98.3505C38.5224 98.6731 38.3915 98.9112 38.1298 99.0646C37.8729 99.2142 37.616 99.2889 37.359 99.2889H36.1375C35.8806 99.2889 35.6309 99.2142 35.3886 99.0646C35.2722 98.9859 35.1825 98.8868 35.1195 98.7672C35.0565 98.6468 35.025 98.5079 35.025 98.3505V96.6685C35.025 96.3498 35.1462 96.1137 35.3886 95.9602C35.5097 95.8894 35.6343 95.8332 35.7623 95.7915C35.8912 95.7505 36.0163 95.7301 36.1375 95.7301H37.359C37.4754 95.7301 37.6038 95.7486 37.7444 95.7855C37.885 95.8233 38.0159 95.8737 38.137 95.9366C38.2534 96.0035 38.3465 96.096 38.4163 96.214C38.487 96.3321 38.5224 96.4717 38.5224 96.6331V96.9282C38.5224 97.117 38.3891 97.2114 38.1225 97.2114C37.8559 97.2114 37.7226 97.117 37.7226 96.9282V96.6744C37.7226 96.576 37.6848 96.4863 37.6092 96.4052C37.5345 96.325 37.4075 96.2848 37.2282 96.2848H36.3193C36.1399 96.2848 36.0124 96.325 35.9368 96.4052C35.8622 96.4863 35.8248 96.576 35.8248 96.6744V98.3446C35.8248 98.439 35.8622 98.5276 35.9368 98.6102C36.0124 98.6928 36.1399 98.7341 36.3193 98.7341H37.2282C37.4075 98.7341 37.5345 98.6928 37.6092 98.6102C37.6848 98.5276 37.7226 98.439 37.7226 98.3446V98.0731C37.7226 97.8882 37.8559 97.7957 38.1225 97.7957C38.3891 97.7957 38.5224 97.8882 38.5224 98.0731ZM40.2311 96.2908V99.041C40.2311 99.2299 40.0978 99.3243 39.8312 99.3243C39.5646 99.3243 39.4313 99.2299 39.4313 99.041V94.8507C39.4313 94.6618 39.5646 94.5674 39.8312 94.5674C40.0978 94.5674 40.2311 94.6618 40.2311 94.8507V95.736H41.7653C42.0126 95.736 42.2695 95.8107 42.5361 95.9602C42.7978 96.1098 42.9287 96.3458 42.9287 96.6685V99.041C42.9287 99.2299 42.7954 99.3243 42.5288 99.3243C42.2622 99.3243 42.1289 99.2299 42.1289 99.041V96.7216C42.1289 96.6193 42.0901 96.5209 42.0126 96.4265L42.0198 96.4324C41.9568 96.338 41.8284 96.2908 41.6345 96.2908H40.2311ZM49.5658 98.0731V98.3505C49.5658 98.6731 49.4349 98.9112 49.1732 99.0646C48.9163 99.2142 48.6593 99.2889 48.4024 99.2889H47.1809C46.924 99.2889 46.6743 99.2142 46.4319 99.0646C46.3156 98.9859 46.2259 98.8868 46.1629 98.7672C46.0999 98.6468 46.0684 98.5079 46.0684 98.3505V96.6685C46.0684 96.3498 46.1896 96.1137 46.4319 95.9602C46.5531 95.8894 46.6782 95.8332 46.8071 95.7915C46.9351 95.7505 47.0597 95.7301 47.1809 95.7301H48.4024C48.5188 95.7301 48.6472 95.7486 48.7878 95.7855C48.9284 95.8233 49.0592 95.8737 49.1804 95.9366C49.2968 96.0035 49.3903 96.096 49.4611 96.214C49.5309 96.3321 49.5658 96.4717 49.5658 96.6331V96.9282C49.5658 97.117 49.4325 97.2114 49.1659 97.2114C48.8993 97.2114 48.766 97.117 48.766 96.9282V96.6744C48.766 96.576 48.7287 96.4863 48.654 96.4052C48.5784 96.325 48.4509 96.2848 48.2715 96.2848H47.3627C47.1833 96.2848 47.0563 96.325 46.9816 96.4052C46.906 96.4863 46.8682 96.576 46.8682 96.6744V98.3446C46.8682 98.439 46.906 98.5276 46.9816 98.6102C47.0563 98.6928 47.1833 98.7341 47.3627 98.7341H48.2715C48.4509 98.7341 48.5784 98.6928 48.654 98.6102C48.7287 98.5276 48.766 98.439 48.766 98.3446V98.0731C48.766 97.8882 48.8993 97.7957 49.1659 97.7957C49.4325 97.7957 49.5658 97.8882 49.5658 98.0731ZM52.5252 99.2889H51.5726C51.4224 99.2889 51.2794 99.272 51.1436 99.2382C51.0079 99.2051 50.877 99.1571 50.751 99.0941V99.1C50.5135 98.9781 50.3947 98.7538 50.3947 98.4272V98.138C50.3947 97.9767 50.4296 97.8359 50.4994 97.7155C50.5702 97.5959 50.6686 97.5006 50.7946 97.4298H50.7874C50.9085 97.3629 51.037 97.3126 51.1727 97.2787C51.3085 97.2457 51.4393 97.2292 51.5654 97.2292H53.1723V96.6803C53.1723 96.5819 53.1345 96.4922 53.0589 96.4111C52.9842 96.3309 52.8572 96.2908 52.6778 96.2908H51.8271C51.6429 96.2908 51.5154 96.3269 51.4447 96.3993C51.3749 96.4725 51.34 96.5583 51.34 96.6567V96.7039C51.34 96.9085 51.2042 97.0108 50.9328 97.0108C50.6613 97.0108 50.5256 96.9085 50.5256 96.7039V96.6508C50.5256 96.4894 50.5605 96.3537 50.6303 96.2435C50.7011 96.1334 50.7971 96.0409 50.9182 95.9661H50.911C51.037 95.8993 51.1688 95.8442 51.3065 95.8009C51.4452 95.7576 51.5775 95.736 51.7035 95.736H52.8087C52.9299 95.736 53.0593 95.7576 53.197 95.8009C53.3356 95.8442 53.4656 95.8993 53.5867 95.9661H53.5795C53.7055 96.0409 53.8024 96.1381 53.8703 96.2577C53.9382 96.3781 53.9721 96.517 53.9721 96.6744V99.041C53.9721 99.2299 53.8388 99.3243 53.5722 99.3243C53.5189 99.3243 53.4689 99.3224 53.4224 99.3184C53.3768 99.3145 53.3356 99.3035 53.2988 99.2854C53.2629 99.2681 53.2338 99.2425 53.2115 99.2086C53.1902 99.1756 53.1796 99.1315 53.1796 99.0764L53.1723 97.7839H51.7035C51.5969 97.7839 51.5145 97.7938 51.4563 97.8134C51.3981 97.8331 51.3521 97.8646 51.3181 97.9079C51.2794 97.9748 51.2513 98.0267 51.2338 98.0637C51.2173 98.1014 51.2091 98.1439 51.2091 98.1912V98.4213C51.2091 98.5236 51.2464 98.6011 51.3211 98.6539C51.3967 98.7074 51.5266 98.7341 51.7108 98.7341H52.5252C52.7045 98.7341 52.7942 98.8266 52.7942 99.0115C52.7942 99.0902 52.7724 99.1559 52.7287 99.2086C52.6851 99.2622 52.6173 99.2889 52.5252 99.2889ZM57.1641 99.0587V96.7216C57.1641 96.6704 57.1544 96.6201 57.1351 96.5705C57.1157 96.5217 57.0914 96.4757 57.0623 96.4324C56.9993 96.338 56.8684 96.2908 56.6697 96.2908H56.2043C56.0056 96.2908 55.8723 96.338 55.8044 96.4324C55.7463 96.5229 55.7172 96.6193 55.7172 96.7216V99.0587C55.7172 99.2437 55.5839 99.3361 55.3173 99.3361C55.041 99.3361 54.9028 99.2437 54.9028 99.0587V96.6685C54.9028 96.3458 55.0337 96.1098 55.2955 95.9602C55.5621 95.8107 55.8214 95.736 56.0735 95.736H56.8078C56.9193 95.736 57.0429 95.7537 57.1787 95.7891C57.3144 95.8245 57.4453 95.8796 57.5713 95.9543C57.6925 95.8796 57.8195 95.8245 57.9523 95.7891C58.0861 95.7537 58.2136 95.736 58.3348 95.736H59.0619C59.3188 95.736 59.5757 95.8107 59.8326 95.9602C60.0992 96.1058 60.2325 96.3419 60.2325 96.6685V99.0587C60.2325 99.2437 60.0968 99.3361 59.8254 99.3361C59.5539 99.3361 59.4182 99.2437 59.4182 99.0587V96.7216C59.4182 96.6704 59.4109 96.6193 59.3964 96.5681C59.3818 96.517 59.3552 96.4698 59.3164 96.4265L59.3237 96.4324C59.2849 96.3812 59.2364 96.3447 59.1782 96.3226C59.1201 96.3014 59.0352 96.2908 58.9237 96.2908H58.4657C58.2621 96.2908 58.1288 96.338 58.0658 96.4324C58.0027 96.519 57.9712 96.6154 57.9712 96.7216V99.0587C57.9712 99.2437 57.8379 99.3361 57.5713 99.3361C57.2999 99.3361 57.1641 99.2437 57.1641 99.0587ZM63.4522 99.2889H62.5869C62.4124 99.2889 62.3203 99.1964 62.3106 99.0115C62.3106 98.8266 62.4027 98.7341 62.5869 98.7341H63.3213C63.5007 98.7341 63.6282 98.6928 63.7038 98.6102C63.7784 98.5276 63.8158 98.439 63.8158 98.3446V96.6803C63.8158 96.5819 63.7784 96.4902 63.7038 96.4052C63.6282 96.321 63.4983 96.2829 63.3141 96.2908H61.918V99.8378C61.918 100.023 61.7847 100.115 61.5181 100.115C61.2515 100.115 61.1182 100.021 61.1182 99.8319V96.0842C61.1182 95.9465 61.1618 95.854 61.2491 95.8068C61.3363 95.7596 61.4429 95.736 61.569 95.736H63.4522C63.5782 95.736 63.7057 95.7537 63.8347 95.7891C63.9626 95.8245 64.0945 95.8737 64.2302 95.9366C64.3466 96.0035 64.4401 96.0968 64.5109 96.2164C64.5807 96.3368 64.6156 96.4776 64.6156 96.639V98.3859C64.6156 98.7086 64.4871 98.9387 64.2302 99.0764C63.9588 99.2181 63.6994 99.2889 63.4522 99.2889ZM66.3461 95.9957V99.041C66.3461 99.2299 66.2128 99.3243 65.9462 99.3243C65.6747 99.3243 65.539 99.2299 65.539 99.041V95.9957C65.539 95.8068 65.6747 95.7124 65.9462 95.7124C66.2128 95.7124 66.3461 95.8068 66.3461 95.9957ZM66.4988 94.9687C66.4988 95.0946 66.4455 95.2009 66.3388 95.2874C66.2322 95.374 66.1013 95.4173 65.9462 95.4173C65.7911 95.4173 65.6592 95.374 65.5507 95.2874C65.4411 95.2009 65.3863 95.0946 65.3863 94.9687C65.3863 94.8389 65.4411 94.7307 65.5507 94.6441C65.6592 94.5576 65.7911 94.5143 65.9462 94.5143C66.1013 94.5143 66.2322 94.5576 66.3388 94.6441C66.4455 94.7307 66.4988 94.8389 66.4988 94.9687ZM68.1566 96.7216V99.041C68.1566 99.2299 68.0233 99.3243 67.7567 99.3243C67.4901 99.3243 67.3568 99.2299 67.3568 99.041V96.6685C67.3568 96.5072 67.3883 96.3675 67.4513 96.2494C67.5143 96.1314 67.6137 96.035 67.7494 95.9602C68.0064 95.8107 68.2633 95.736 68.5202 95.736H69.6908C69.938 95.736 70.195 95.8107 70.4616 95.9602C70.7233 96.1098 70.8542 96.3458 70.8542 96.6685V99.041C70.8542 99.2299 70.7209 99.3243 70.4543 99.3243C70.1877 99.3243 70.0544 99.2299 70.0544 99.041V96.7216C70.0544 96.6193 70.0156 96.5209 69.938 96.4265L69.9453 96.4324C69.8823 96.338 69.7538 96.2908 69.56 96.2908H68.6511C68.4523 96.2908 68.3214 96.338 68.2584 96.4324C68.1906 96.515 68.1566 96.6114 68.1566 96.7216ZM73.8426 98.8758H72.9628C72.8368 98.8758 72.7069 98.8581 72.5731 98.8227C72.4403 98.7872 72.3109 98.7361 72.1848 98.6692C71.9231 98.5315 71.7922 98.2994 71.7922 97.9728V96.639C71.7922 96.4737 71.8271 96.3321 71.8969 96.214C71.9677 96.096 72.0636 96.0035 72.1848 95.9366C72.3109 95.8737 72.4393 95.8245 72.5702 95.7891C72.7011 95.7537 72.8295 95.736 72.9556 95.736H74.1771C74.2983 95.736 74.4243 95.7576 74.5552 95.8009C74.6861 95.8442 74.8073 95.8993 74.9188 95.9661C75.0303 96.0409 75.1199 96.1393 75.1878 96.2612C75.2557 96.3832 75.2896 96.5209 75.2896 96.6744V99.1768C75.2896 99.342 75.2566 99.4829 75.1907 99.5993C75.1258 99.715 75.0351 99.8122 74.9188 99.8909C74.8073 99.9657 74.6871 100.024 74.5581 100.066C74.4302 100.107 74.3031 100.127 74.1771 100.127H72.9556C72.6987 100.127 72.4393 100.066 72.1776 99.944C72.0418 99.8811 71.9434 99.8004 71.8823 99.702C71.8222 99.6037 71.7922 99.4896 71.7922 99.3597V99.2889C71.7922 99.2102 71.8237 99.1473 71.8867 99.1C71.9497 99.0528 72.0491 99.0292 72.1848 99.0292C72.4563 99.0528 72.592 99.1394 72.592 99.2889V99.3538C72.592 99.3971 72.6293 99.4443 72.704 99.4955C72.7796 99.5466 72.9071 99.5722 73.0864 99.5722H73.9953C74.1747 99.5722 74.3017 99.5309 74.3764 99.4483C74.452 99.3656 74.4898 99.2732 74.4898 99.1709V96.6803C74.4898 96.5819 74.452 96.4922 74.3764 96.4111C74.3017 96.3309 74.1747 96.2908 73.9953 96.2908H73.0864C72.9071 96.2908 72.7796 96.3309 72.704 96.4111C72.6293 96.4922 72.592 96.5819 72.592 96.6803V97.9256C72.592 98.0239 72.6293 98.1156 72.704 98.2006C72.7796 98.2848 72.9071 98.3269 73.0864 98.3269H73.8426C74.0172 98.3269 74.1044 98.4174 74.1044 98.5984C74.1044 98.681 74.0836 98.7479 74.0419 98.7991C74.0012 98.8502 73.9347 98.8758 73.8426 98.8758ZM79.2655 95.9957V99.041C79.2655 99.2299 79.1321 99.3243 78.8655 99.3243C78.5941 99.3243 78.4584 99.2299 78.4584 99.041V95.9957C78.4584 95.8068 78.5941 95.7124 78.8655 95.7124C79.1321 95.7124 79.2655 95.8068 79.2655 95.9957ZM79.4181 94.9687C79.4181 95.0946 79.3648 95.2009 79.2582 95.2874C79.1515 95.374 79.0207 95.4173 78.8655 95.4173C78.7104 95.4173 78.5786 95.374 78.47 95.2874C78.3604 95.2009 78.3057 95.0946 78.3057 94.9687C78.3057 94.8389 78.3604 94.7307 78.47 94.6441C78.5786 94.5576 78.7104 94.5143 78.8655 94.5143C79.0207 94.5143 79.1515 94.5576 79.2582 94.6441C79.3648 94.7307 79.4181 94.8389 79.4181 94.9687ZM81.076 96.7216V99.041C81.076 99.2299 80.9427 99.3243 80.676 99.3243C80.4094 99.3243 80.2761 99.2299 80.2761 99.041V96.6685C80.2761 96.5072 80.3076 96.3675 80.3707 96.2494C80.4337 96.1314 80.5331 96.035 80.6688 95.9602C80.9257 95.8107 81.1826 95.736 81.4395 95.736H82.6102C82.8574 95.736 83.1143 95.8107 83.3809 95.9602C83.6427 96.1098 83.7736 96.3458 83.7736 96.6685V99.041C83.7736 99.2299 83.6403 99.3243 83.3736 99.3243C83.107 99.3243 82.9737 99.2299 82.9737 99.041V96.7216C82.9737 96.6193 82.9349 96.5209 82.8574 96.4265L82.8647 96.4324C82.8016 96.338 82.6732 96.2908 82.4793 96.2908H81.5704C81.3717 96.2908 81.2408 96.338 81.1778 96.4324C81.1099 96.515 81.076 96.6114 81.076 96.7216ZM85.7208 96.2908V99.041C85.7208 99.2299 85.5855 99.3243 85.315 99.3243C85.0484 99.3243 84.9151 99.2299 84.9151 99.041V96.2908H84.5647C84.3901 96.2908 84.298 96.1983 84.2883 96.0134C84.2883 95.8284 84.3804 95.736 84.5647 95.736H84.9151V95.4527C84.9151 95.2914 84.9427 95.1544 84.998 95.0419C85.0533 94.9302 85.1439 94.8448 85.27 94.7858V94.7917C85.3969 94.7287 85.5269 94.6795 85.6597 94.6441C85.7935 94.6087 85.935 94.591 86.0843 94.591H86.2603C86.4387 94.591 86.5279 94.6835 86.5279 94.8684C86.5376 95.0533 86.4484 95.1458 86.2603 95.1458H86.1425C86.0514 95.1458 85.9777 95.1525 85.9214 95.1659C85.8652 95.18 85.8225 95.2009 85.7935 95.2284C85.7654 95.256 85.746 95.2894 85.7353 95.3287C85.7256 95.3681 85.7208 95.4114 85.7208 95.4586V95.736H86.2661C86.4561 95.736 86.5458 95.8284 86.5351 96.0134C86.5351 96.1983 86.4454 96.2908 86.2661 96.2908H85.7208ZM88.3166 95.736H89.4799C89.606 95.736 89.7359 95.7576 89.8697 95.8009C90.0025 95.8442 90.1319 95.8993 90.2579 95.9661H90.2507C90.3767 96.0409 90.4736 96.1381 90.5415 96.2577C90.6094 96.3781 90.6433 96.517 90.6433 96.6744V98.3505C90.6433 98.6731 90.5124 98.9112 90.2507 99.0646C89.9938 99.2142 89.7368 99.2889 89.4799 99.2889H88.3166C88.1905 99.2889 88.0621 99.2712 87.9312 99.2358C87.8003 99.2004 87.6718 99.1433 87.5458 99.0646C87.284 98.9151 87.1532 98.6771 87.1532 98.3505V96.6744C87.1532 96.517 87.1871 96.3781 87.255 96.2577C87.3228 96.1381 87.4198 96.0409 87.5458 95.9661H87.5385C87.6597 95.8993 87.7882 95.8442 87.9239 95.8009C88.0596 95.7576 88.1905 95.736 88.3166 95.736ZM88.4474 98.7341H89.349C89.5284 98.7341 89.6559 98.6928 89.7315 98.6102C89.8062 98.5276 89.8435 98.439 89.8435 98.3446V96.6803C89.8435 96.5819 89.8062 96.4922 89.7315 96.4111C89.6559 96.3309 89.5284 96.2908 89.349 96.2908H88.4474C88.2681 96.2908 88.1411 96.3309 88.0664 96.4111C87.9908 96.4922 87.953 96.5819 87.953 96.6803V98.3446C87.953 98.439 87.9908 98.5276 88.0664 98.6102C88.1411 98.6928 88.2681 98.7341 88.4474 98.7341ZM92.3448 96.6036V99.041C92.3448 99.2299 92.2115 99.3243 91.9448 99.3243C91.6685 99.3243 91.5304 99.2299 91.5304 99.041V96.5976C91.5304 96.275 91.6491 96.0507 91.8867 95.9248C92.1242 95.7989 92.3981 95.736 92.7083 95.736H93.5372C93.7166 95.736 93.8063 95.8284 93.8063 96.0134C93.8159 96.1983 93.7263 96.2908 93.5372 96.2908H92.7665C92.592 96.2908 92.4781 96.3183 92.4247 96.3734C92.3714 96.4285 92.3448 96.5052 92.3448 96.6036ZM96.6783 99.0587V96.7216C96.6783 96.6704 96.6686 96.6201 96.6493 96.5705C96.6299 96.5217 96.6056 96.4757 96.5766 96.4324C96.5135 96.338 96.3827 96.2908 96.1839 96.2908H95.7186C95.5198 96.2908 95.3865 96.338 95.3186 96.4324C95.2605 96.5229 95.2314 96.6193 95.2314 96.7216V99.0587C95.2314 99.2437 95.0981 99.3361 94.8315 99.3361C94.5552 99.3361 94.417 99.2437 94.417 99.0587V96.6685C94.417 96.3458 94.5479 96.1098 94.8097 95.9602C95.0763 95.8107 95.3356 95.736 95.5877 95.736H96.3221C96.4335 95.736 96.5572 95.7537 96.6929 95.7891C96.8286 95.8245 96.9595 95.8796 97.0855 95.9543C97.2067 95.8796 97.3337 95.8245 97.4665 95.7891C97.6003 95.7537 97.7278 95.736 97.849 95.736H98.5761C98.833 95.736 99.0899 95.8107 99.3468 95.9602C99.6135 96.1058 99.7468 96.3419 99.7468 96.6685V99.0587C99.7468 99.2437 99.611 99.3361 99.3396 99.3361C99.0681 99.3361 98.9324 99.2437 98.9324 99.0587V96.7216C98.9324 96.6704 98.9251 96.6193 98.9106 96.5681C98.896 96.517 98.8694 96.4698 98.8306 96.4265L98.8379 96.4324C98.7991 96.3812 98.7506 96.3447 98.6924 96.3226C98.6343 96.3014 98.5494 96.2908 98.438 96.2908H97.9799C97.7763 96.2908 97.643 96.338 97.58 96.4324C97.517 96.519 97.4854 96.6154 97.4854 96.7216V99.0587C97.4854 99.2437 97.3521 99.3361 97.0855 99.3361C96.8141 99.3361 96.6783 99.2437 96.6783 99.0587ZM102.683 99.2889H101.73C101.58 99.2889 101.437 99.272 101.301 99.2382C101.166 99.2051 101.035 99.1571 100.909 99.0941V99.1C100.671 98.9781 100.552 98.7538 100.552 98.4272V98.138C100.552 97.9767 100.588 97.8359 100.659 97.7155C100.728 97.5959 100.826 97.5006 100.952 97.4298H100.945C101.066 97.3629 101.195 97.3126 101.33 97.2787C101.466 97.2457 101.597 97.2292 101.723 97.2292H103.33V96.6803C103.33 96.5819 103.293 96.4922 103.218 96.4111C103.142 96.3309 103.015 96.2908 102.836 96.2908H101.985C101.801 96.2908 101.674 96.3269 101.604 96.3993C101.533 96.4725 101.498 96.5583 101.498 96.6567V96.7039C101.498 96.9085 101.362 97.0108 101.09 97.0108C100.819 97.0108 100.683 96.9085 100.683 96.7039V96.6508C100.683 96.4894 100.719 96.3537 100.789 96.2435C100.859 96.1334 100.955 96.0409 101.076 95.9661H101.069C101.195 95.8993 101.327 95.8442 101.466 95.8009C101.603 95.7576 101.735 95.736 101.861 95.736H102.966C103.088 95.736 103.218 95.7576 103.356 95.8009C103.494 95.8442 103.623 95.8993 103.744 95.9661H103.737C103.863 96.0409 103.96 96.1381 104.028 96.2577C104.096 96.3781 104.13 96.517 104.13 96.6744V99.041C104.13 99.2299 103.996 99.3243 103.73 99.3243C103.677 99.3243 103.627 99.3224 103.582 99.3184C103.535 99.3145 103.494 99.3035 103.458 99.2854C103.421 99.2681 103.392 99.2425 103.371 99.2086C103.348 99.1756 103.337 99.1315 103.337 99.0764L103.33 97.7839H101.861C101.755 97.7839 101.672 97.7938 101.614 97.8134C101.556 97.8331 101.51 97.8646 101.476 97.9079C101.437 97.9748 101.409 98.0267 101.393 98.0637C101.375 98.1014 101.367 98.1439 101.367 98.1912V98.4213C101.367 98.5236 101.405 98.6011 101.48 98.6539C101.555 98.7074 101.684 98.7341 101.868 98.7341H102.683C102.862 98.7341 102.952 98.8266 102.952 99.0115C102.952 99.0902 102.93 99.1559 102.886 99.2086C102.843 99.2622 102.775 99.2889 102.683 99.2889ZM106.624 96.2908H106.02V98.439C106.02 98.5413 106.047 98.62 106.1 98.6751C106.154 98.7302 106.268 98.7577 106.442 98.7577H106.631C106.82 98.7577 106.91 98.8482 106.9 99.0292C106.9 99.2142 106.81 99.3066 106.631 99.3066H106.391C106.236 99.3066 106.091 99.2897 105.955 99.2559C105.819 99.2228 105.688 99.1748 105.562 99.1119V99.1178C105.325 98.9918 105.206 98.7676 105.206 98.4449V96.2908H104.922C104.748 96.2908 104.656 96.1983 104.646 96.0134C104.646 95.8284 104.738 95.736 104.922 95.736H105.206V95.1045C105.206 94.9156 105.344 94.8212 105.62 94.8212C105.887 94.8212 106.02 94.9156 106.02 95.1045V95.736H106.624C106.813 95.736 106.903 95.8284 106.893 96.0134C106.893 96.1983 106.803 96.2908 106.624 96.2908ZM108.354 95.9957V99.041C108.354 99.2299 108.221 99.3243 107.954 99.3243C107.683 99.3243 107.547 99.2299 107.547 99.041V95.9957C107.547 95.8068 107.683 95.7124 107.954 95.7124C108.221 95.7124 108.354 95.8068 108.354 95.9957ZM108.507 94.9687C108.507 95.0946 108.454 95.2009 108.347 95.2874C108.24 95.374 108.11 95.4173 107.954 95.4173C107.799 95.4173 107.667 95.374 107.557 95.2874C107.449 95.2009 107.395 95.0946 107.395 94.9687C107.395 94.8389 107.449 94.7307 107.557 94.6441C107.667 94.5576 107.799 94.5143 107.954 94.5143C108.11 94.5143 108.24 94.5576 108.347 94.6441C108.454 94.7307 108.507 94.8389 108.507 94.9687ZM110.528 95.736H111.692C111.818 95.736 111.947 95.7576 112.08 95.8009C112.214 95.8442 112.344 95.8993 112.47 95.9661H112.463C112.589 96.0409 112.685 96.1381 112.753 96.2577C112.821 96.3781 112.855 96.517 112.855 96.6744V98.3505C112.855 98.6731 112.724 98.9112 112.463 99.0646C112.206 99.2142 111.949 99.2889 111.692 99.2889H110.528C110.402 99.2889 110.274 99.2712 110.143 99.2358C110.012 99.2004 109.884 99.1433 109.758 99.0646C109.496 98.9151 109.365 98.6771 109.365 98.3505V96.6744C109.365 96.517 109.399 96.3781 109.467 96.2577C109.535 96.1381 109.632 96.0409 109.758 95.9661H109.75C109.872 95.8993 110 95.8442 110.136 95.8009C110.271 95.7576 110.402 95.736 110.528 95.736ZM110.659 98.7341H111.561C111.74 98.7341 111.867 98.6928 111.942 98.6102C112.018 98.5276 112.055 98.439 112.055 98.3446V96.6803C112.055 96.5819 112.018 96.4922 111.942 96.4111C111.867 96.3309 111.74 96.2908 111.561 96.2908H110.659C110.48 96.2908 110.352 96.3309 110.277 96.4111C110.202 96.4922 110.165 96.5819 110.165 96.6803V98.3446C110.165 98.439 110.202 98.5276 110.277 98.6102C110.352 98.6928 110.48 98.7341 110.659 98.7341ZM114.57 96.7216V99.041C114.57 99.2299 114.436 99.3243 114.17 99.3243C113.903 99.3243 113.77 99.2299 113.77 99.041V96.6685C113.77 96.5072 113.801 96.3675 113.864 96.2494C113.927 96.1314 114.027 96.035 114.162 95.9602C114.419 95.8107 114.676 95.736 114.933 95.736H116.104C116.351 95.736 116.608 95.8107 116.875 95.9602C117.136 96.1098 117.267 96.3458 117.267 96.6685V99.041C117.267 99.2299 117.134 99.3243 116.867 99.3243C116.601 99.3243 116.467 99.2299 116.467 99.041V96.7216C116.467 96.6193 116.429 96.5209 116.351 96.4265L116.358 96.4324C116.295 96.338 116.167 96.2908 115.973 96.2908H115.064C114.865 96.2908 114.734 96.338 114.671 96.4324C114.604 96.515 114.57 96.6114 114.57 96.7216Z" fill="#FFC604"/>
</g>
</g>
</g>
</g>
<g clip-path="url(#clip10_37_719)">
<g clip-path="url(#clip11_37_719)">
<path d="M99.8788 0C85.8228 0 74.3878 9.28222 74.3871 20.6913C74.3871 23.0066 74.8548 25.2798 75.7768 27.4488C80.012 37.3526 87.2981 46.3092 96.8244 53.3331C97.642 53.9927 98.7261 54.3558 99.8788 54.3558C101.032 54.3558 102.115 53.9927 102.909 53.3507C112.457 46.3104 119.744 37.3531 123.981 27.4471C124.902 25.2787 125.371 23.0049 125.371 20.6908C125.371 9.28222 113.936 0 99.8788 0ZM99.8788 36.3463C89.192 36.3463 80.498 29.2906 80.498 20.6168C80.498 11.943 89.192 4.88613 99.8788 4.88613C110.565 4.88613 119.259 11.9418 119.259 20.6162C119.259 29.2906 110.565 36.3463 99.8788 36.3463Z" fill="#FF4136"/>
<path d="M112.492 27.166L100.687 10.5685L101.778 9.03407C101.971 8.76145 101.856 8.4137 101.521 8.25661C101.186 8.09953 100.757 8.1923 100.563 8.46492L99.8767 9.42963L99.1902 8.46492C98.996 8.19287 98.5683 8.09896 98.2324 8.25661C97.8972 8.4137 97.7822 8.76202 97.9758 9.03407L99.0668 10.5685L87.1992 27.2525C86.9243 27.6401 87.2791 28.1062 87.8064 28.1062H111.947C111.951 28.1062 111.957 28.1062 111.961 28.1062C112.532 28.1062 112.829 27.578 112.492 27.166ZM95.1598 26.9679L99.8781 20.3362L104.595 26.9679H95.1598ZM106.213 26.9679L100.485 18.9133C100.359 18.7369 100.128 18.6288 99.8774 18.6288C99.6271 18.6288 99.395 18.7369 99.2702 18.9133L93.54 26.9679H89.0216L99.8774 11.7068L110.732 26.9679H106.213Z" fill="#FF4136"/>
</g>
</g>
</g>
</g>
</g>
</g>
<defs>
<clipPath id="clip0_37_719">
<rect width="200" height="100" fill="white"/>
</clipPath>
<clipPath id="clip1_37_719">
<rect width="200" height="100" fill="white" transform="translate(-0.121216 0.0634766)"/>
</clipPath>
<clipPath id="clip2_37_719">
<rect width="199.705" height="100.127" fill="white" transform="translate(0.0262451)"/>
</clipPath>
<clipPath id="clip3_37_719">
<rect width="199.705" height="100.127" fill="white" transform="translate(0.0262451)"/>
</clipPath>
<clipPath id="clip4_37_719">
<rect width="199.705" height="39.3313" fill="white" transform="translate(0.0262451 60.7957)"/>
</clipPath>
<clipPath id="clip5_37_719">
<rect width="199.705" height="39.3313" fill="white" transform="translate(0.0262451 60.7957)"/>
</clipPath>
<clipPath id="clip6_37_719">
<rect width="199.705" height="27.2787" fill="white" transform="translate(0.0262451 60.7957)"/>
</clipPath>
<clipPath id="clip7_37_719">
<rect width="199.705" height="27.2787" fill="white" transform="translate(0.0262451 60.7957)"/>
</clipPath>
<clipPath id="clip8_37_719">
<rect width="117.247" height="5.6127" fill="white" transform="translate(0.0262451 94.5143)"/>
</clipPath>
<clipPath id="clip9_37_719">
<rect width="117.247" height="5.6127" fill="white" transform="translate(0.0262451 94.5143)"/>
</clipPath>
<clipPath id="clip10_37_719">
<rect width="50.9835" height="54.3558" fill="white" transform="translate(74.3871)"/>
</clipPath>
<clipPath id="clip11_37_719">
<rect width="50.9835" height="54.3558" fill="white" transform="translate(74.3871)"/>
</clipPath>
</defs>
</svg>
