<svg xmlns="http://www.w3.org/2000/svg" version="1.1" xmlns:xlink="http://www.w3.org/1999/xlink" xmlns:svgjs="http://svgjs.dev/svgjs" width="1000" height="439" viewBox="0 0 1000 439"><g transform="matrix(1,0,0,1,-0.6060606060606233,0.327275839433554)"><svg xmlns="http://www.w3.org/2000/svg" version="1.1" xmlns:xlink="http://www.w3.org/1999/xlink" xmlns:svgjs="http://svgjs.com/svgjs" viewBox="0 0 396 174" data-background-color="#ffffff" preserveAspectRatio="xMidYMid meet" height="439" width="1000"><defs></defs><g id="tight-bounds" transform="matrix(1,0,0,1,0.2400000000000091,-0.1297175308916536)"><svg viewBox="0 0 395.52 174.2594350617833" height="174.2594350617833" width="395.52"><g><svg viewBox="0 0 395.52000000000004 174.25943506178334" height="174.2594350617833" width="395.52"><g transform="matrix(1,0,0,1,0,107.69932180999716)"><svg viewBox="0 0 395.52000000000004 66.56011325178616" height="66.56011325178616" width="395.52000000000004"><g><svg viewBox="0 0 395.52000000000004 66.56011325178616" height="66.56011325178616" width="395.52000000000004"><g><svg viewBox="0 0 395.52000000000004 66.56011325178616" height="66.56011325178616" width="395.52000000000004"><g transform="matrix(1,0,0,1,0,0)"><svg width="395.52000000000004" viewBox="0.34375 -40.45 282.53625 47.550000000000004" height="66.56011325178616" data-palette-color="#111111"><path d="M28.15-1.2L17.15-34.8 6.2-1.2 6.2-1.25Q5.9-0.5 5.38-0.03 4.85 0.45 4.1 0.45L4.1 0.45Q3.7 0.45 3.33 0.38 2.95 0.3 2.55 0.2L2.55 0.2 2.6 0.2Q-0.25-0.7 0.5-3L0.5-3 11.9-37.65Q12.15-38.45 12.78-39 13.4-39.55 14.25-39.65L14.25-39.65Q15.1-39.8 15.9-39.88 16.7-39.95 17.15-39.95L17.15-39.95Q17.6-39.95 18.4-39.88 19.2-39.8 20.05-39.7L20.05-39.7Q20.75-39.6 21.43-38.95 22.1-38.3 22.45-37.65L22.45-37.65Q25.25-29.05 28.13-20.33 31-11.6 33.8-3L33.8-3Q34.5-0.7 31.7 0.2L31.7 0.2Q31.3 0.3 30.98 0.38 30.65 0.45 30.25 0.45L30.25 0.45Q29.55 0.45 28.98-0.03 28.4-0.5 28.15-1.25L28.15-1.25 28.15-1.2ZM20.9-12L20.9-12Q20.9-10.4 19.78-9.28 18.65-8.15 17.05-8.15L17.05-8.15Q15.45-8.15 14.35-9.28 13.25-10.4 13.25-12L13.25-12Q13.25-13.6 14.35-14.73 15.45-15.85 17.05-15.85L17.05-15.85Q18.65-15.85 19.78-14.73 20.9-13.6 20.9-12ZM43.55-37.8L43.55-1.95Q43.55 0.4 40.8 0.4L40.8 0.4Q38 0.4 38-1.95L38-1.95 38-37.8Q38-40.15 40.8-40.15L40.8-40.15Q43.55-40.15 43.55-37.8L43.55-37.8ZM56.15-37.8L56.15-1.95Q56.15 0.4 53.4 0.4L53.4 0.4Q50.6 0.4 50.6-1.95L50.6-1.95 50.6-37.8Q50.6-40.15 53.4-40.15L53.4-40.15Q56.15-40.15 56.15-37.8L56.15-37.8ZM105.44-11.3L105.44-8Q105.44-3.95 102.74-1.95L102.74-1.95Q101.44-1 100.07-0.48 98.69 0.05 97.39 0.05L97.39 0.05 86.49 0.05Q85.19 0.05 83.82-0.48 82.44-1 81.14-1.95L81.14-1.95Q79.84-2.95 79.14-4.42 78.44-5.9 78.44-8L78.44-8 78.44-31.75Q78.44-33.75 79.14-35.27 79.84-36.8 81.14-37.75L81.14-37.75 81.09-37.75Q82.39-38.6 83.79-39.15 85.19-39.7 86.49-39.7L86.49-39.7 97.39-39.7Q98.69-39.7 100.09-39.15 101.49-38.6 102.79-37.75L102.79-37.75 102.74-37.75Q104.04-36.8 104.74-35.27 105.44-33.75 105.44-31.75L105.44-31.75 105.44-28.3Q105.44-25.9 102.44-25.9L102.44-25.9Q99.49-25.9 99.49-28.3L99.49-28.3 99.49-31.3Q99.49-32.55 98.74-33.6 97.99-34.65 96.14-34.65L96.14-34.65 87.74-34.65Q85.89-34.65 85.14-33.6 84.39-32.55 84.39-31.3L84.39-31.3 84.39-8.4Q84.39-7.1 85.14-6.05 85.89-5 87.74-5L87.74-5 96.14-5Q97.99-5 98.74-6.05 99.49-7.1 99.49-8.4L99.49-8.4 99.49-11.3Q99.49-13.65 102.44-13.65L102.44-13.65Q105.44-13.65 105.44-11.3L105.44-11.3ZM126.34 0L119.79 0Q118.24 0 116.84-0.43 115.44-0.85 114.14-1.65L114.14-1.65 114.14-1.6Q111.69-3.15 111.69-7.3L111.69-7.3 111.69-9.75Q111.69-11.8 112.41-13.33 113.14-14.85 114.44-15.75L114.44-15.75 114.39-15.75Q115.64-16.6 117.04-17.03 118.44-17.45 119.74-17.45L119.74-17.45 130.79-17.45 130.79-22.1Q130.79-23.35 130.01-24.38 129.24-25.4 127.39-25.4L127.39-25.4 121.54-25.4Q119.64-25.4 118.91-24.48 118.19-23.55 118.19-22.3L118.19-22.3 118.19-21.9Q118.19-19.3 115.39-19.3L115.39-19.3Q112.59-19.3 112.59-21.9L112.59-21.9 112.59-22.35Q112.59-24.4 113.31-25.8 114.04-27.2 115.29-28.15L115.29-28.15 115.24-28.15Q116.54-29 117.96-29.55 119.39-30.1 120.69-30.1L120.69-30.1 128.29-30.1Q129.54-30.1 130.96-29.55 132.39-29 133.64-28.15L133.64-28.15 133.59-28.15Q134.89-27.2 135.59-25.68 136.29-24.15 136.29-22.15L136.29-22.15 136.29-2.1Q136.29 0.3 133.54 0.3L133.54 0.3Q132.99 0.3 132.51 0.25 132.04 0.2 131.66-0.03 131.29-0.25 131.06-0.68 130.84-1.1 130.84-1.8L130.84-1.8 130.79-12.75 120.69-12.75Q119.59-12.75 118.99-12.5 118.39-12.25 118.04-11.7L118.04-11.7Q117.64-10.85 117.46-10.38 117.29-9.9 117.29-9.3L117.29-9.3 117.29-7.35Q117.29-6.05 118.06-5.38 118.84-4.7 120.74-4.7L120.74-4.7 126.34-4.7Q128.19-4.7 128.19-2.35L128.19-2.35Q128.19-1.35 127.74-0.68 127.29 0 126.34 0L126.34 0ZM158.24-1.95L158.24-21.75Q158.24-22.4 158.03-23.03 157.84-23.65 157.53-24.2L157.53-24.2Q156.88-25.4 154.84-25.4L154.84-25.4 151.63-25.4Q149.59-25.4 148.88-24.2L148.88-24.2Q148.28-23.05 148.28-21.75L148.28-21.75 148.28-1.95Q148.28 0.4 145.53 0.4L145.53 0.4Q142.69 0.4 142.69-1.95L142.69-1.95 142.69-22.2Q142.69-26.3 145.38-28.2L145.38-28.2Q148.13-30.1 150.74-30.1L150.74-30.1 155.78-30.1Q156.94-30.1 158.34-29.65 159.74-29.2 161.03-28.25L161.03-28.25Q162.28-29.2 163.66-29.65 165.03-30.1 166.28-30.1L166.28-30.1 171.28-30.1Q173.94-30.1 176.59-28.2L176.59-28.2Q179.34-26.35 179.34-22.2L179.34-22.2 179.34-1.95Q179.34 0.4 176.53 0.4L176.53 0.4Q173.74 0.4 173.74-1.95L173.74-1.95 173.74-21.75Q173.74-22.4 173.59-23.05 173.44-23.7 173.03-24.25L173.03-24.25 173.09-24.2Q172.69-24.85 172.09-25.13 171.49-25.4 170.34-25.4L170.34-25.4 167.19-25.4Q165.09-25.4 164.44-24.2L164.44-24.2Q163.78-23.1 163.78-21.75L163.78-21.75 163.78-1.95Q163.78 0.4 161.03 0.4L161.03 0.4Q158.24 0.4 158.24-1.95L158.24-1.95ZM201.48 0L195.53 0Q193.73 0 193.63-2.35L193.63-2.35Q193.63-4.7 195.53-4.7L195.53-4.7 200.58-4.7Q202.43-4.7 203.21-5.75 203.98-6.8 203.98-8L203.98-8 203.98-22.1Q203.98-23.35 203.21-24.43 202.43-25.5 200.53-25.4L200.53-25.4 190.93-25.4 190.93 4.65Q190.93 7 188.18 7L188.18 7Q185.43 7 185.43 4.6L185.43 4.6 185.43-27.15Q185.43-28.9 186.33-29.5 187.23-30.1 188.53-30.1L188.53-30.1 201.48-30.1Q202.78-30.1 204.11-29.65 205.43-29.2 206.83-28.4L206.83-28.4Q208.03-27.55 208.76-26.03 209.48-24.5 209.48-22.45L209.48-22.45 209.48-7.65Q209.48-3.55 206.83-1.8L206.83-1.8Q204.03 0 201.48 0L201.48 0ZM221.38-27.9L221.38-2.1Q221.38 0.3 218.63 0.3L218.63 0.3Q215.83 0.3 215.83-2.1L215.83-2.1 215.83-27.9Q215.83-30.3 218.63-30.3L218.63-30.3Q221.38-30.3 221.38-27.9L221.38-27.9ZM222.43-36.6L222.43-36.6Q222.43-35 221.33-33.9 220.23-32.8 218.63-32.8L218.63-32.8Q217.03-32.8 215.91-33.9 214.78-35 214.78-36.6L214.78-36.6Q214.78-38.25 215.91-39.35 217.03-40.45 218.63-40.45L218.63-40.45Q220.23-40.45 221.33-39.35 222.43-38.25 222.43-36.6ZM233.83-21.75L233.83-2.1Q233.83 0.3 231.08 0.3L231.08 0.3Q228.33 0.3 228.33-2.1L228.33-2.1 228.33-22.2Q228.33-24.25 228.98-25.75 229.63-27.25 231.03-28.2L231.03-28.2Q233.68-30.1 236.33-30.1L236.33-30.1 244.38-30.1Q246.93-30.1 249.68-28.2L249.68-28.2Q252.38-26.3 252.38-22.2L252.38-22.2 252.38-2.1Q252.38 0.3 249.63 0.3L249.63 0.3Q246.88 0.3 246.88-2.1L246.88-2.1 246.88-21.75Q246.88-23.05 246.08-24.25L246.08-24.25 246.13-24.2Q245.48-25.4 243.48-25.4L243.48-25.4 237.23-25.4Q235.18-25.4 234.53-24.2L234.53-24.2Q233.83-23.15 233.83-21.75L233.83-21.75ZM272.93-3.5L266.88-3.5Q265.57-3.5 264.2-3.95 262.82-4.4 261.52-5.25L261.52-5.25Q258.82-7 258.82-11.15L258.82-11.15 258.82-22.45Q258.82-24.55 259.55-26.05 260.27-27.55 261.52-28.4L261.52-28.4Q262.82-29.2 264.18-29.65 265.52-30.1 266.82-30.1L266.82-30.1 275.23-30.1Q276.48-30.1 277.82-29.55 279.18-29 280.32-28.15L280.32-28.15Q281.48-27.2 282.18-25.65 282.88-24.1 282.88-22.15L282.88-22.15 282.88-0.95Q282.88 1.15 282.2 2.63 281.52 4.1 280.32 5.1L280.32 5.1Q279.18 6.05 277.85 6.58 276.52 7.1 275.23 7.1L275.23 7.1 266.82 7.1Q264.18 7.1 261.48 5.55L261.48 5.55Q260.07 4.75 259.45 3.5 258.82 2.25 258.82 0.6L258.82 0.6 258.82 0Q258.82-1 259.48-1.6 260.13-2.2 261.52-2.2L261.52-2.2Q264.32-1.9 264.32 0L264.32 0 264.32 0.55Q264.32 1.1 265.1 1.75 265.88 2.4 267.73 2.4L267.73 2.4 273.98 2.4Q275.82 2.4 276.6 1.35 277.38 0.3 277.38-1L277.38-1 277.38-22.1Q277.38-23.35 276.6-24.38 275.82-25.4 273.98-25.4L273.98-25.4 267.73-25.4Q265.88-25.4 265.1-24.38 264.32-23.35 264.32-22.1L264.32-22.1 264.32-11.55Q264.32-10.3 265.1-9.22 265.88-8.15 267.73-8.15L267.73-8.15 272.93-8.15Q274.73-8.15 274.73-5.85L274.73-5.85Q274.73-4.8 274.3-4.15 273.88-3.5 272.93-3.5L272.93-3.5Z" opacity="1" transform="matrix(1,0,0,1,0,0)" fill="#111111" class="undefined-text-0" data-fill-palette-color="primary" id="text-0"></path></svg></g></svg></g></svg></g></svg></g><g transform="matrix(1,0,0,1,162.74414923285596,0)"><svg viewBox="0 0 70.0317015342881 91.98607651396848" height="91.98607651396848" width="70.0317015342881"><g><svg xmlns="http://www.w3.org/2000/svg" xmlns:xlink="http://www.w3.org/1999/xlink" version="1.1" x="0" y="0" viewBox="13.645000000000003 2.248 72.71000000000001 95.50399999999998" enable-background="new 0 0 100 100" xml:space="preserve" height="91.98607651396848" width="70.0317015342881" class="icon-icon-0" data-fill-palette-color="accent" id="icon-0"><path d="M50 2.248c-20.046 0-36.354 16.309-36.355 36.355 0 4.068 0.667 8.062 1.982 11.873 6.04 17.401 16.431 33.138 30.017 45.479 1.166 1.159 2.712 1.797 4.356 1.797 1.645 0 3.189-0.638 4.322-1.766 13.617-12.37 24.009-28.108 30.051-45.513 1.314-3.81 1.982-7.805 1.982-11.871C86.355 18.557 70.047 2.248 50 2.248zM50 66.109c-15.241 0-27.64-12.397-27.64-27.637 0-15.24 12.399-27.639 27.64-27.639 15.24 0 27.639 12.397 27.639 27.638C77.639 53.712 65.24 66.109 50 66.109z" fill="#ff4136" data-fill-palette-color="accent"></path><path d="M67.989 49.979L51.152 20.817l1.556-2.696c0.276-0.479 0.112-1.09-0.366-1.366-0.478-0.276-1.09-0.113-1.366 0.366l-0.979 1.695-0.979-1.695c-0.277-0.478-0.887-0.643-1.366-0.366-0.478 0.276-0.642 0.888-0.366 1.366l1.556 2.696L31.917 50.131c-0.392 0.681 0.114 1.5 0.866 1.5h34.428c0.006 0 0.014 0 0.02 0C68.046 51.631 68.469 50.703 67.989 49.979zM43.27 49.631l6.729-11.652 6.727 11.652H43.27zM59.034 49.631l-8.17-14.152c-0.179-0.31-0.509-0.5-0.866-0.5s-0.688 0.19-0.866 0.5l-8.172 14.152h-6.444l15.482-26.814 15.481 26.814H59.034z" fill="#ff4136" data-fill-palette-color="accent"></path></svg><g></g></g></svg></g><g></g></svg></g></svg><rect width="395.52" height="174.2594350617833" fill="none" stroke="none" visibility="hidden"></rect></g></svg></g></svg>