<svg xmlns="http://www.w3.org/2000/svg" version="1.1" xmlns:xlink="http://www.w3.org/1999/xlink" xmlns:svgjs="http://svgjs.dev/svgjs" width="1000" height="616" viewBox="0 0 1000 616"><g transform="matrix(1,0,0,1,-0.6060606060606233,0.39108648720167594)"><svg xmlns="http://www.w3.org/2000/svg" version="1.1" xmlns:xlink="http://www.w3.org/1999/xlink" xmlns:svgjs="http://svgjs.com/svgjs" viewBox="0 0 396 244" data-background-color="#ffffff" preserveAspectRatio="xMidYMid meet" height="616" width="1000"><defs></defs><g id="tight-bounds" transform="matrix(1,0,0,1,0.2400000000000091,-0.15491088129417108)"><svg viewBox="0 0 395.52 244.30982176258834" height="244.30982176258834" width="395.52"><g><svg viewBox="0 0 395.52000000000004 244.30982176258837" height="244.30982176258834" width="395.52"><g transform="matrix(1,0,0,1,0,148.34148571449447)"><svg viewBox="0 0 395.52000000000004 95.9683360480939" height="95.9683360480939" width="395.52000000000004"><g><svg viewBox="0 0 395.52000000000004 95.9683360480939" height="95.9683360480939" width="395.52000000000004"><g><svg viewBox="0 0 395.52000000000004 66.56011325178616" height="66.56011325178616" width="395.52000000000004"><g transform="matrix(1,0,0,1,0,0)"><svg width="395.52000000000004" viewBox="0.34375 -40.45 282.53625 47.550000000000004" height="66.56011325178616" data-palette-color="#111111"><path d="M28.15-1.2L17.15-34.8 6.2-1.2 6.2-1.25Q5.9-0.5 5.38-0.03 4.85 0.45 4.1 0.45L4.1 0.45Q3.7 0.45 3.33 0.38 2.95 0.3 2.55 0.2L2.55 0.2 2.6 0.2Q-0.25-0.7 0.5-3L0.5-3 11.9-37.65Q12.15-38.45 12.78-39 13.4-39.55 14.25-39.65L14.25-39.65Q15.1-39.8 15.9-39.88 16.7-39.95 17.15-39.95L17.15-39.95Q17.6-39.95 18.4-39.88 19.2-39.8 20.05-39.7L20.05-39.7Q20.75-39.6 21.43-38.95 22.1-38.3 22.45-37.65L22.45-37.65Q25.25-29.05 28.13-20.33 31-11.6 33.8-3L33.8-3Q34.5-0.7 31.7 0.2L31.7 0.2Q31.3 0.3 30.98 0.38 30.65 0.45 30.25 0.45L30.25 0.45Q29.55 0.45 28.98-0.03 28.4-0.5 28.15-1.25L28.15-1.25 28.15-1.2ZM20.9-12L20.9-12Q20.9-10.4 19.78-9.28 18.65-8.15 17.05-8.15L17.05-8.15Q15.45-8.15 14.35-9.28 13.25-10.4 13.25-12L13.25-12Q13.25-13.6 14.35-14.73 15.45-15.85 17.05-15.85L17.05-15.85Q18.65-15.85 19.78-14.73 20.9-13.6 20.9-12ZM43.55-37.8L43.55-1.95Q43.55 0.4 40.8 0.4L40.8 0.4Q38 0.4 38-1.95L38-1.95 38-37.8Q38-40.15 40.8-40.15L40.8-40.15Q43.55-40.15 43.55-37.8L43.55-37.8ZM56.15-37.8L56.15-1.95Q56.15 0.4 53.4 0.4L53.4 0.4Q50.6 0.4 50.6-1.95L50.6-1.95 50.6-37.8Q50.6-40.15 53.4-40.15L53.4-40.15Q56.15-40.15 56.15-37.8L56.15-37.8ZM105.44-11.3L105.44-8Q105.44-3.95 102.74-1.95L102.74-1.95Q101.44-1 100.07-0.48 98.69 0.05 97.39 0.05L97.39 0.05 86.49 0.05Q85.19 0.05 83.82-0.48 82.44-1 81.14-1.95L81.14-1.95Q79.84-2.95 79.14-4.42 78.44-5.9 78.44-8L78.44-8 78.44-31.75Q78.44-33.75 79.14-35.27 79.84-36.8 81.14-37.75L81.14-37.75 81.09-37.75Q82.39-38.6 83.79-39.15 85.19-39.7 86.49-39.7L86.49-39.7 97.39-39.7Q98.69-39.7 100.09-39.15 101.49-38.6 102.79-37.75L102.79-37.75 102.74-37.75Q104.04-36.8 104.74-35.27 105.44-33.75 105.44-31.75L105.44-31.75 105.44-28.3Q105.44-25.9 102.44-25.9L102.44-25.9Q99.49-25.9 99.49-28.3L99.49-28.3 99.49-31.3Q99.49-32.55 98.74-33.6 97.99-34.65 96.14-34.65L96.14-34.65 87.74-34.65Q85.89-34.65 85.14-33.6 84.39-32.55 84.39-31.3L84.39-31.3 84.39-8.4Q84.39-7.1 85.14-6.05 85.89-5 87.74-5L87.74-5 96.14-5Q97.99-5 98.74-6.05 99.49-7.1 99.49-8.4L99.49-8.4 99.49-11.3Q99.49-13.65 102.44-13.65L102.44-13.65Q105.44-13.65 105.44-11.3L105.44-11.3ZM126.34 0L119.79 0Q118.24 0 116.84-0.43 115.44-0.85 114.14-1.65L114.14-1.65 114.14-1.6Q111.69-3.15 111.69-7.3L111.69-7.3 111.69-9.75Q111.69-11.8 112.41-13.33 113.14-14.85 114.44-15.75L114.44-15.75 114.39-15.75Q115.64-16.6 117.04-17.03 118.44-17.45 119.74-17.45L119.74-17.45 130.79-17.45 130.79-22.1Q130.79-23.35 130.01-24.38 129.24-25.4 127.39-25.4L127.39-25.4 121.54-25.4Q119.64-25.4 118.91-24.48 118.19-23.55 118.19-22.3L118.19-22.3 118.19-21.9Q118.19-19.3 115.39-19.3L115.39-19.3Q112.59-19.3 112.59-21.9L112.59-21.9 112.59-22.35Q112.59-24.4 113.31-25.8 114.04-27.2 115.29-28.15L115.29-28.15 115.24-28.15Q116.54-29 117.96-29.55 119.39-30.1 120.69-30.1L120.69-30.1 128.29-30.1Q129.54-30.1 130.96-29.55 132.39-29 133.64-28.15L133.64-28.15 133.59-28.15Q134.89-27.2 135.59-25.68 136.29-24.15 136.29-22.15L136.29-22.15 136.29-2.1Q136.29 0.3 133.54 0.3L133.54 0.3Q132.99 0.3 132.51 0.25 132.04 0.2 131.66-0.03 131.29-0.25 131.06-0.68 130.84-1.1 130.84-1.8L130.84-1.8 130.79-12.75 120.69-12.75Q119.59-12.75 118.99-12.5 118.39-12.25 118.04-11.7L118.04-11.7Q117.64-10.85 117.46-10.38 117.29-9.9 117.29-9.3L117.29-9.3 117.29-7.35Q117.29-6.05 118.06-5.38 118.84-4.7 120.74-4.7L120.74-4.7 126.34-4.7Q128.19-4.7 128.19-2.35L128.19-2.35Q128.19-1.35 127.74-0.68 127.29 0 126.34 0L126.34 0ZM158.24-1.95L158.24-21.75Q158.24-22.4 158.03-23.03 157.84-23.65 157.53-24.2L157.53-24.2Q156.88-25.4 154.84-25.4L154.84-25.4 151.63-25.4Q149.59-25.4 148.88-24.2L148.88-24.2Q148.28-23.05 148.28-21.75L148.28-21.75 148.28-1.95Q148.28 0.4 145.53 0.4L145.53 0.4Q142.69 0.4 142.69-1.95L142.69-1.95 142.69-22.2Q142.69-26.3 145.38-28.2L145.38-28.2Q148.13-30.1 150.74-30.1L150.74-30.1 155.78-30.1Q156.94-30.1 158.34-29.65 159.74-29.2 161.03-28.25L161.03-28.25Q162.28-29.2 163.66-29.65 165.03-30.1 166.28-30.1L166.28-30.1 171.28-30.1Q173.94-30.1 176.59-28.2L176.59-28.2Q179.34-26.35 179.34-22.2L179.34-22.2 179.34-1.95Q179.34 0.4 176.53 0.4L176.53 0.4Q173.74 0.4 173.74-1.95L173.74-1.95 173.74-21.75Q173.74-22.4 173.59-23.05 173.44-23.7 173.03-24.25L173.03-24.25 173.09-24.2Q172.69-24.85 172.09-25.13 171.49-25.4 170.34-25.4L170.34-25.4 167.19-25.4Q165.09-25.4 164.44-24.2L164.44-24.2Q163.78-23.1 163.78-21.75L163.78-21.75 163.78-1.95Q163.78 0.4 161.03 0.4L161.03 0.4Q158.24 0.4 158.24-1.95L158.24-1.95ZM201.48 0L195.53 0Q193.73 0 193.63-2.35L193.63-2.35Q193.63-4.7 195.53-4.7L195.53-4.7 200.58-4.7Q202.43-4.7 203.21-5.75 203.98-6.8 203.98-8L203.98-8 203.98-22.1Q203.98-23.35 203.21-24.43 202.43-25.5 200.53-25.4L200.53-25.4 190.93-25.4 190.93 4.65Q190.93 7 188.18 7L188.18 7Q185.43 7 185.43 4.6L185.43 4.6 185.43-27.15Q185.43-28.9 186.33-29.5 187.23-30.1 188.53-30.1L188.53-30.1 201.48-30.1Q202.78-30.1 204.11-29.65 205.43-29.2 206.83-28.4L206.83-28.4Q208.03-27.55 208.76-26.03 209.48-24.5 209.48-22.45L209.48-22.45 209.48-7.65Q209.48-3.55 206.83-1.8L206.83-1.8Q204.03 0 201.48 0L201.48 0ZM221.38-27.9L221.38-2.1Q221.38 0.3 218.63 0.3L218.63 0.3Q215.83 0.3 215.83-2.1L215.83-2.1 215.83-27.9Q215.83-30.3 218.63-30.3L218.63-30.3Q221.38-30.3 221.38-27.9L221.38-27.9ZM222.43-36.6L222.43-36.6Q222.43-35 221.33-33.9 220.23-32.8 218.63-32.8L218.63-32.8Q217.03-32.8 215.91-33.9 214.78-35 214.78-36.6L214.78-36.6Q214.78-38.25 215.91-39.35 217.03-40.45 218.63-40.45L218.63-40.45Q220.23-40.45 221.33-39.35 222.43-38.25 222.43-36.6ZM233.83-21.75L233.83-2.1Q233.83 0.3 231.08 0.3L231.08 0.3Q228.33 0.3 228.33-2.1L228.33-2.1 228.33-22.2Q228.33-24.25 228.98-25.75 229.63-27.25 231.03-28.2L231.03-28.2Q233.68-30.1 236.33-30.1L236.33-30.1 244.38-30.1Q246.93-30.1 249.68-28.2L249.68-28.2Q252.38-26.3 252.38-22.2L252.38-22.2 252.38-2.1Q252.38 0.3 249.63 0.3L249.63 0.3Q246.88 0.3 246.88-2.1L246.88-2.1 246.88-21.75Q246.88-23.05 246.08-24.25L246.08-24.25 246.13-24.2Q245.48-25.4 243.48-25.4L243.48-25.4 237.23-25.4Q235.18-25.4 234.53-24.2L234.53-24.2Q233.83-23.15 233.83-21.75L233.83-21.75ZM272.93-3.5L266.88-3.5Q265.57-3.5 264.2-3.95 262.82-4.4 261.52-5.25L261.52-5.25Q258.82-7 258.82-11.15L258.82-11.15 258.82-22.45Q258.82-24.55 259.55-26.05 260.27-27.55 261.52-28.4L261.52-28.4Q262.82-29.2 264.18-29.65 265.52-30.1 266.82-30.1L266.82-30.1 275.23-30.1Q276.48-30.1 277.82-29.55 279.18-29 280.32-28.15L280.32-28.15Q281.48-27.2 282.18-25.65 282.88-24.1 282.88-22.15L282.88-22.15 282.88-0.95Q282.88 1.15 282.2 2.63 281.52 4.1 280.32 5.1L280.32 5.1Q279.18 6.05 277.85 6.58 276.52 7.1 275.23 7.1L275.23 7.1 266.82 7.1Q264.18 7.1 261.48 5.55L261.48 5.55Q260.07 4.75 259.45 3.5 258.82 2.25 258.82 0.6L258.82 0.6 258.82 0Q258.82-1 259.48-1.6 260.13-2.2 261.52-2.2L261.52-2.2Q264.32-1.9 264.32 0L264.32 0 264.32 0.55Q264.32 1.1 265.1 1.75 265.88 2.4 267.73 2.4L267.73 2.4 273.98 2.4Q275.82 2.4 276.6 1.35 277.38 0.3 277.38-1L277.38-1 277.38-22.1Q277.38-23.35 276.6-24.38 275.82-25.4 273.98-25.4L273.98-25.4 267.73-25.4Q265.88-25.4 265.1-24.38 264.32-23.35 264.32-22.1L264.32-22.1 264.32-11.55Q264.32-10.3 265.1-9.22 265.88-8.15 267.73-8.15L267.73-8.15 272.93-8.15Q274.73-8.15 274.73-5.85L274.73-5.85Q274.73-4.8 274.3-4.15 273.88-3.5 272.93-3.5L272.93-3.5Z" opacity="1" transform="matrix(1,0,0,1,0,0)" fill="#111111" class="undefined-text-0" data-fill-palette-color="primary" id="text-0"></path></svg></g></svg></g><g transform="matrix(1,0,0,1,0,82.27335854781484)"><svg viewBox="0 0 232.20979200000002 13.69497750027907" height="13.69497750027907" width="232.20979200000002"><g transform="matrix(1,0,0,1,0,0)"><svg width="232.20979200000002" viewBox="4.05 -40.45 806.1700000000001 47.550000000000004" height="13.69497750027907" data-palette-color="#ffc604"><path d="M25.5 0.05L7.2 0.05Q5.35 0.05 4.7-0.9 4.05-1.85 4.05-3L4.05-3 4.05-36.7Q4.05-37.85 4.7-38.78 5.35-39.7 7.2-39.7L7.2-39.7 24.6-39.7Q26.45-39.7 26.55-37.2L26.55-37.2Q26.65-34.65 24.6-34.65L24.6-34.65 9.95-34.65 9.95-5 25.5-5Q27.35-5 27.4-2.55L27.4-2.55Q27.5 0.05 25.5 0.05L25.5 0.05ZM22.75-20.65L22.75-20.65Q22.75-18.9 21.53-17.7 20.3-16.5 18.55-16.5L18.55-16.5Q16.85-16.5 15.65-17.7 14.45-18.9 14.45-20.65L14.45-20.65Q14.45-22.4 15.65-23.6 16.85-24.8 18.55-24.8L18.55-24.8Q20.3-24.8 21.53-23.6 22.75-22.4 22.75-20.65ZM46.45 0L39.9 0Q38.35 0 36.95-0.43 35.55-0.85 34.25-1.65L34.25-1.65 34.25-1.6Q31.8-3.15 31.8-7.3L31.8-7.3 31.8-9.75Q31.8-11.8 32.52-13.33 33.25-14.85 34.55-15.75L34.55-15.75 34.5-15.75Q35.75-16.6 37.15-17.03 38.55-17.45 39.85-17.45L39.85-17.45 50.9-17.45 50.9-22.1Q50.9-23.35 50.12-24.38 49.35-25.4 47.5-25.4L47.5-25.4 41.65-25.4Q39.75-25.4 39.02-24.48 38.3-23.55 38.3-22.3L38.3-22.3 38.3-21.9Q38.3-19.3 35.5-19.3L35.5-19.3Q32.7-19.3 32.7-21.9L32.7-21.9 32.7-22.35Q32.7-24.4 33.42-25.8 34.15-27.2 35.4-28.15L35.4-28.15 35.35-28.15Q36.65-29 38.07-29.55 39.5-30.1 40.8-30.1L40.8-30.1 48.4-30.1Q49.65-30.1 51.07-29.55 52.5-29 53.75-28.15L53.75-28.15 53.7-28.15Q55-27.2 55.7-25.68 56.4-24.15 56.4-22.15L56.4-22.15 56.4-2.1Q56.4 0.3 53.65 0.3L53.65 0.3Q53.1 0.3 52.62 0.25 52.15 0.2 51.77-0.03 51.4-0.25 51.17-0.68 50.95-1.1 50.95-1.8L50.95-1.8 50.9-12.75 40.8-12.75Q39.7-12.75 39.1-12.5 38.5-12.25 38.15-11.7L38.15-11.7Q37.75-10.85 37.57-10.38 37.4-9.9 37.4-9.3L37.4-9.3 37.4-7.35Q37.4-6.05 38.17-5.38 38.95-4.7 40.85-4.7L40.85-4.7 46.45-4.7Q48.3-4.7 48.3-2.35L48.3-2.35Q48.3-1.35 47.85-0.68 47.4 0 46.45 0L46.45 0ZM71.75-17.5L79.09-17.5Q80.34-17.5 81.77-16.93 83.2-16.35 84.45-15.5L84.45-15.5 84.4-15.5Q85.7-14.55 86.4-13.05 87.09-11.55 87.09-9.45L87.09-9.45 87.09-7.95Q87.09-3.85 84.4-1.9L84.4-1.9Q83.09-0.9 81.75-0.45 80.4 0 79.09 0L79.09 0 70.59 0Q69.3 0 67.95-0.45 66.59-0.9 65.3-1.9L65.3-1.9Q62.59-3.8 62.59-7.95L62.59-7.95 62.59-8.55Q62.59-10.7 65.34-10.65L65.34-10.65Q68.14-10.65 68.14-8.55L68.14-8.55 68.14-8Q68.14-6.8 68.9-5.75 69.65-4.7 71.55-4.7L71.55-4.7 78.15-4.7Q80.05-4.7 80.8-5.75 81.55-6.8 81.55-8L81.55-8 81.55-9.4Q81.55-10.05 81.37-10.65 81.2-11.25 80.8-11.73 80.4-12.2 79.75-12.5 79.09-12.8 78.15-12.8L78.15-12.8 70.84-12.8Q68.3-12.8 65.5-14.6L65.5-14.6Q62.84-16.3 62.84-20.45L62.84-20.45 62.84-22.15Q62.84-24.15 63.55-25.68 64.25-27.2 65.55-28.15L65.55-28.15 65.5-28.15Q66.75-29 68.14-29.55 69.55-30.1 70.84-30.1L70.84-30.1 78.84-30.1Q80.15-30.1 81.52-29.55 82.9-29 84.2-28.15L84.2-28.15 84.15-28.15Q85.45-27.2 86.15-25.68 86.84-24.15 86.84-22.15L86.84-22.15 86.84-21.7Q86.84-20.65 86.15-20.18 85.45-19.7 84.09-19.65L84.09-19.65Q81.34-19.6 81.34-21.7L81.34-21.7 81.34-22.1Q81.34-23.35 80.57-24.38 79.8-25.4 77.95-25.4L77.95-25.4 71.75-25.4Q69.9-25.4 69.12-24.38 68.34-23.35 68.34-22.1L68.34-22.1 68.34-20.9Q68.34-19.6 69.12-18.55 69.9-17.5 71.75-17.5L71.75-17.5ZM97.79 7L95.19 7Q93.44 7 93.34 4.65L93.34 4.65Q93.34 2.3 95.19 2.3L95.19 2.3 97.39 2.3Q99.14 2.3 99.69 1.25L99.69 1.25 100.39-0.6 100.64-1.4 90.89-26.95 90.89-26.9Q90.49-28.1 91.07-28.95 91.64-29.8 92.84-30.2L92.84-30.2Q93.74-30.45 94.29-30.45L94.29-30.45Q95.74-30.45 96.09-28.75L96.09-28.75 100.04-18.9 103.39-10.7 108.74-28.65Q109.19-30.45 110.84-30.45L110.84-30.45Q111.24-30.45 112.14-30.2L112.14-30.2Q113.34-29.85 113.87-29.05 114.39-28.25 114.09-27.15L114.09-27.15Q111.84-19.5 109.52-11.75 107.19-4 104.94 3.6L104.94 3.6Q104.69 4.15 104.17 4.73 103.64 5.3 102.79 5.83 101.94 6.35 100.69 6.68 99.44 7 97.79 7L97.79 7ZM142.24-17.5L149.59-17.5Q150.84-17.5 152.26-16.93 153.69-16.35 154.94-15.5L154.94-15.5 154.89-15.5Q156.19-14.55 156.89-13.05 157.59-11.55 157.59-9.45L157.59-9.45 157.59-7.95Q157.59-3.85 154.89-1.9L154.89-1.9Q153.59-0.9 152.24-0.45 150.89 0 149.59 0L149.59 0 141.09 0Q139.79 0 138.44-0.45 137.09-0.9 135.79-1.9L135.79-1.9Q133.09-3.8 133.09-7.95L133.09-7.95 133.09-8.55Q133.09-10.7 135.84-10.65L135.84-10.65Q138.64-10.65 138.64-8.55L138.64-8.55 138.64-8Q138.64-6.8 139.39-5.75 140.14-4.7 142.04-4.7L142.04-4.7 148.64-4.7Q150.54-4.7 151.29-5.75 152.04-6.8 152.04-8L152.04-8 152.04-9.4Q152.04-10.05 151.86-10.65 151.69-11.25 151.29-11.73 150.89-12.2 150.24-12.5 149.59-12.8 148.64-12.8L148.64-12.8 141.34-12.8Q138.79-12.8 135.99-14.6L135.99-14.6Q133.34-16.3 133.34-20.45L133.34-20.45 133.34-22.15Q133.34-24.15 134.04-25.68 134.74-27.2 136.04-28.15L136.04-28.15 135.99-28.15Q137.24-29 138.64-29.55 140.04-30.1 141.34-30.1L141.34-30.1 149.34-30.1Q150.64-30.1 152.01-29.55 153.39-29 154.69-28.15L154.69-28.15 154.64-28.15Q155.94-27.2 156.64-25.68 157.34-24.15 157.34-22.15L157.34-22.15 157.34-21.7Q157.34-20.65 156.64-20.18 155.94-19.7 154.59-19.65L154.59-19.65Q151.84-19.6 151.84-21.7L151.84-21.7 151.84-22.1Q151.84-23.35 151.06-24.38 150.29-25.4 148.44-25.4L148.44-25.4 142.24-25.4Q140.39-25.4 139.61-24.38 138.84-23.35 138.84-22.1L138.84-22.1 138.84-20.9Q138.84-19.6 139.61-18.55 140.39-17.5 142.24-17.5L142.24-17.5ZM169.59-22.15L169.59-8Q169.59-6.8 170.36-5.75 171.14-4.7 172.99-4.7L172.99-4.7 179.24-4.7Q181.09-4.7 181.86-5.63 182.64-6.55 182.64-7.75L182.64-7.75 182.64-8.3Q182.64-10.65 185.39-10.65L185.39-10.65Q188.14-10.65 188.14-8.3L188.14-8.3 188.14-7.7Q188.14-5.6 187.46-4.25 186.79-2.9 185.44-1.9L185.44-1.9Q182.79 0 180.14 0L180.14 0 171.74 0Q169.09 0 166.59-1.9L166.59-1.9Q165.39-2.9 164.74-4.42 164.09-5.95 164.09-7.95L164.09-7.95 164.09-22.2Q164.09-26.25 166.59-28.2L166.59-28.2Q167.84-29.1 169.16-29.63 170.49-30.15 171.74-30.15L171.74-30.15 180.14-30.15Q181.34-30.15 182.79-29.68 184.24-29.2 185.49-28.4L185.49-28.4Q186.69-27.55 187.41-26.05 188.14-24.55 188.14-22.5L188.14-22.5 188.14-15.75Q188.14-14.6 187.46-13.7 186.79-12.8 184.99-12.8L184.99-12.8 174.19-12.8Q172.39-12.8 172.29-15.15L172.29-15.15Q172.29-17.5 174.19-17.5L174.19-17.5 182.69-17.5 182.64-22.15Q182.64-23.4 181.86-24.43 181.09-25.45 179.24-25.45L179.24-25.45 172.99-25.45Q171.14-25.45 170.36-24.43 169.59-23.4 169.59-22.15L169.59-22.15ZM208.58 0L202.03 0Q200.48 0 199.08-0.43 197.68-0.85 196.38-1.65L196.38-1.65 196.38-1.6Q193.93-3.15 193.93-7.3L193.93-7.3 193.93-9.75Q193.93-11.8 194.66-13.33 195.38-14.85 196.68-15.75L196.68-15.75 196.63-15.75Q197.88-16.6 199.28-17.03 200.68-17.45 201.98-17.45L201.98-17.45 213.03-17.45 213.03-22.1Q213.03-23.35 212.26-24.38 211.48-25.4 209.63-25.4L209.63-25.4 203.78-25.4Q201.88-25.4 201.16-24.48 200.43-23.55 200.43-22.3L200.43-22.3 200.43-21.9Q200.43-19.3 197.63-19.3L197.63-19.3Q194.83-19.3 194.83-21.9L194.83-21.9 194.83-22.35Q194.83-24.4 195.56-25.8 196.28-27.2 197.53-28.15L197.53-28.15 197.48-28.15Q198.78-29 200.21-29.55 201.63-30.1 202.93-30.1L202.93-30.1 210.53-30.1Q211.78-30.1 213.21-29.55 214.63-29 215.88-28.15L215.88-28.15 215.83-28.15Q217.13-27.2 217.83-25.68 218.53-24.15 218.53-22.15L218.53-22.15 218.53-2.1Q218.53 0.3 215.78 0.3L215.78 0.3Q215.23 0.3 214.76 0.25 214.28 0.2 213.91-0.03 213.53-0.25 213.31-0.68 213.08-1.1 213.08-1.8L213.08-1.8 213.03-12.75 202.93-12.75Q201.83-12.75 201.23-12.5 200.63-12.25 200.28-11.7L200.28-11.7Q199.88-10.85 199.71-10.38 199.53-9.9 199.53-9.3L199.53-9.3 199.53-7.35Q199.53-6.05 200.31-5.38 201.08-4.7 202.98-4.7L202.98-4.7 208.58-4.7Q210.43-4.7 210.43-2.35L210.43-2.35Q210.43-1.35 209.98-0.68 209.53 0 208.58 0L208.58 0ZM230.38-22.75L230.38-2.1Q230.38 0.3 227.63 0.3L227.63 0.3Q224.78 0.3 224.78-2.1L224.78-2.1 224.78-22.8Q224.78-26.9 227.23-28.5L227.23-28.5Q229.68-30.1 232.88-30.1L232.88-30.1 238.58-30.1Q240.43-30.1 240.43-27.75L240.43-27.75Q240.53-25.4 238.58-25.4L238.58-25.4 233.28-25.4Q231.48-25.4 230.93-24.7 230.38-24 230.38-22.75L230.38-22.75ZM268.73-10.3L268.73-7.95Q268.73-3.85 266.03-1.9L266.03-1.9Q263.38 0 260.73 0L260.73 0 252.33 0Q249.68 0 247.18-1.9L247.18-1.9Q245.98-2.9 245.33-4.42 244.68-5.95 244.68-7.95L244.68-7.95 244.68-22.2Q244.68-26.25 247.18-28.2L247.18-28.2Q248.43-29.1 249.75-29.63 251.08-30.15 252.33-30.15L252.33-30.15 260.73-30.15Q261.93-30.15 263.38-29.68 264.83-29.2 266.08-28.4L266.08-28.4Q267.28-27.55 268-26.05 268.73-24.55 268.73-22.5L268.73-22.5 268.73-20Q268.73-17.6 265.98-17.6L265.98-17.6Q263.23-17.6 263.23-20L263.23-20 263.23-22.15Q263.23-23.4 262.45-24.43 261.68-25.45 259.83-25.45L259.83-25.45 253.58-25.45Q251.73-25.45 250.95-24.43 250.18-23.4 250.18-22.15L250.18-22.15 250.18-8Q250.18-6.8 250.95-5.75 251.73-4.7 253.58-4.7L253.58-4.7 259.83-4.7Q261.68-4.7 262.45-5.75 263.23-6.8 263.23-8L263.23-8 263.23-10.3Q263.23-12.65 265.98-12.65L265.98-12.65Q268.73-12.65 268.73-10.3L268.73-10.3ZM280.48-25.4L280.48-2.1Q280.48 0.3 277.73 0.3L277.73 0.3Q274.98 0.3 274.98-2.1L274.98-2.1 274.98-37.6Q274.98-40 277.73-40L277.73-40Q280.48-40 280.48-37.6L280.48-37.6 280.48-30.1 291.03-30.1Q293.58-30.1 296.33-28.2L296.33-28.2Q299.03-26.3 299.03-22.2L299.03-22.2 299.03-2.1Q299.03 0.3 296.28 0.3L296.28 0.3Q293.53 0.3 293.53-2.1L293.53-2.1 293.53-21.75Q293.53-23.05 292.73-24.25L292.73-24.25 292.78-24.2Q292.13-25.4 290.13-25.4L290.13-25.4 280.48-25.4ZM344.67-10.3L344.67-7.95Q344.67-3.85 341.97-1.9L341.97-1.9Q339.32 0 336.67 0L336.67 0 328.27 0Q325.62 0 323.12-1.9L323.12-1.9Q321.92-2.9 321.27-4.42 320.62-5.95 320.62-7.95L320.62-7.95 320.62-22.2Q320.62-26.25 323.12-28.2L323.12-28.2Q324.37-29.1 325.7-29.63 327.02-30.15 328.27-30.15L328.27-30.15 336.67-30.15Q337.87-30.15 339.32-29.68 340.77-29.2 342.02-28.4L342.02-28.4Q343.22-27.55 343.95-26.05 344.67-24.55 344.67-22.5L344.67-22.5 344.67-20Q344.67-17.6 341.92-17.6L341.92-17.6Q339.17-17.6 339.17-20L339.17-20 339.17-22.15Q339.17-23.4 338.4-24.43 337.62-25.45 335.77-25.45L335.77-25.45 329.52-25.45Q327.67-25.45 326.9-24.43 326.12-23.4 326.12-22.15L326.12-22.15 326.12-8Q326.12-6.8 326.9-5.75 327.67-4.7 329.52-4.7L329.52-4.7 335.77-4.7Q337.62-4.7 338.4-5.75 339.17-6.8 339.17-8L339.17-8 339.17-10.3Q339.17-12.65 341.92-12.65L341.92-12.65Q344.67-12.65 344.67-10.3L344.67-10.3ZM365.02 0L358.47 0Q356.92 0 355.52-0.43 354.12-0.85 352.82-1.65L352.82-1.65 352.82-1.6Q350.37-3.15 350.37-7.3L350.37-7.3 350.37-9.75Q350.37-11.8 351.09-13.33 351.82-14.85 353.12-15.75L353.12-15.75 353.07-15.75Q354.32-16.6 355.72-17.03 357.12-17.45 358.42-17.45L358.42-17.45 369.47-17.45 369.47-22.1Q369.47-23.35 368.69-24.38 367.92-25.4 366.07-25.4L366.07-25.4 360.22-25.4Q358.32-25.4 357.59-24.48 356.87-23.55 356.87-22.3L356.87-22.3 356.87-21.9Q356.87-19.3 354.07-19.3L354.07-19.3Q351.27-19.3 351.27-21.9L351.27-21.9 351.27-22.35Q351.27-24.4 351.99-25.8 352.72-27.2 353.97-28.15L353.97-28.15 353.92-28.15Q355.22-29 356.64-29.55 358.07-30.1 359.37-30.1L359.37-30.1 366.97-30.1Q368.22-30.1 369.64-29.55 371.07-29 372.32-28.15L372.32-28.15 372.27-28.15Q373.57-27.2 374.27-25.68 374.97-24.15 374.97-22.15L374.97-22.15 374.97-2.1Q374.97 0.3 372.22 0.3L372.22 0.3Q371.67 0.3 371.19 0.25 370.72 0.2 370.34-0.03 369.97-0.25 369.74-0.68 369.52-1.1 369.52-1.8L369.52-1.8 369.47-12.75 359.37-12.75Q358.27-12.75 357.67-12.5 357.07-12.25 356.72-11.7L356.72-11.7Q356.32-10.85 356.14-10.38 355.97-9.9 355.97-9.3L355.97-9.3 355.97-7.35Q355.97-6.05 356.74-5.38 357.52-4.7 359.42-4.7L359.42-4.7 365.02-4.7Q366.87-4.7 366.87-2.35L366.87-2.35Q366.87-1.35 366.42-0.68 365.97 0 365.02 0L365.02 0ZM396.92-1.95L396.92-21.75Q396.92-22.4 396.72-23.03 396.52-23.65 396.22-24.2L396.22-24.2Q395.57-25.4 393.52-25.4L393.52-25.4 390.32-25.4Q388.27-25.4 387.57-24.2L387.57-24.2Q386.97-23.05 386.97-21.75L386.97-21.75 386.97-1.95Q386.97 0.4 384.22 0.4L384.22 0.4Q381.37 0.4 381.37-1.95L381.37-1.95 381.37-22.2Q381.37-26.3 384.07-28.2L384.07-28.2Q386.82-30.1 389.42-30.1L389.42-30.1 394.47-30.1Q395.62-30.1 397.02-29.65 398.42-29.2 399.72-28.25L399.72-28.25Q400.97-29.2 402.34-29.65 403.72-30.1 404.97-30.1L404.97-30.1 409.97-30.1Q412.62-30.1 415.27-28.2L415.27-28.2Q418.02-26.35 418.02-22.2L418.02-22.2 418.02-1.95Q418.02 0.4 415.22 0.4L415.22 0.4Q412.42 0.4 412.42-1.95L412.42-1.95 412.42-21.75Q412.42-22.4 412.27-23.05 412.12-23.7 411.72-24.25L411.72-24.25 411.77-24.2Q411.37-24.85 410.77-25.13 410.17-25.4 409.02-25.4L409.02-25.4 405.87-25.4Q403.77-25.4 403.12-24.2L403.12-24.2Q402.47-23.1 402.47-21.75L402.47-21.75 402.47-1.95Q402.47 0.4 399.72 0.4L399.72 0.4Q396.92 0.4 396.92-1.95L396.92-1.95ZM440.16 0L434.21 0Q432.41 0 432.31-2.35L432.31-2.35Q432.31-4.7 434.21-4.7L434.21-4.7 439.26-4.7Q441.11-4.7 441.89-5.75 442.66-6.8 442.66-8L442.66-8 442.66-22.1Q442.66-23.35 441.89-24.43 441.11-25.5 439.21-25.4L439.21-25.4 429.61-25.4 429.61 4.65Q429.61 7 426.86 7L426.86 7Q424.11 7 424.11 4.6L424.11 4.6 424.11-27.15Q424.11-28.9 425.01-29.5 425.91-30.1 427.21-30.1L427.21-30.1 440.16-30.1Q441.46-30.1 442.79-29.65 444.11-29.2 445.51-28.4L445.51-28.4Q446.71-27.55 447.44-26.03 448.16-24.5 448.16-22.45L448.16-22.45 448.16-7.65Q448.16-3.55 445.51-1.8L445.51-1.8Q442.71 0 440.16 0L440.16 0ZM460.06-27.9L460.06-2.1Q460.06 0.3 457.31 0.3L457.31 0.3Q454.51 0.3 454.51-2.1L454.51-2.1 454.51-27.9Q454.51-30.3 457.31-30.3L457.31-30.3Q460.06-30.3 460.06-27.9L460.06-27.9ZM461.11-36.6L461.11-36.6Q461.11-35 460.01-33.9 458.91-32.8 457.31-32.8L457.31-32.8Q455.71-32.8 454.59-33.9 453.46-35 453.46-36.6L453.46-36.6Q453.46-38.25 454.59-39.35 455.71-40.45 457.31-40.45L457.31-40.45Q458.91-40.45 460.01-39.35 461.11-38.25 461.11-36.6ZM472.51-21.75L472.51-2.1Q472.51 0.3 469.76 0.3L469.76 0.3Q467.01 0.3 467.01-2.1L467.01-2.1 467.01-22.2Q467.01-24.25 467.66-25.75 468.31-27.25 469.71-28.2L469.71-28.2Q472.36-30.1 475.01-30.1L475.01-30.1 483.06-30.1Q485.61-30.1 488.36-28.2L488.36-28.2Q491.06-26.3 491.06-22.2L491.06-22.2 491.06-2.1Q491.06 0.3 488.31 0.3L488.31 0.3Q485.56 0.3 485.56-2.1L485.56-2.1 485.56-21.75Q485.56-23.05 484.76-24.25L484.76-24.25 484.81-24.2Q484.16-25.4 482.16-25.4L482.16-25.4 475.91-25.4Q473.86-25.4 473.21-24.2L473.21-24.2Q472.51-23.15 472.51-21.75L472.51-21.75ZM511.61-3.5L505.56-3.5Q504.26-3.5 502.88-3.95 501.51-4.4 500.21-5.25L500.21-5.25Q497.51-7 497.51-11.15L497.51-11.15 497.51-22.45Q497.51-24.55 498.23-26.05 498.96-27.55 500.21-28.4L500.21-28.4Q501.51-29.2 502.86-29.65 504.21-30.1 505.51-30.1L505.51-30.1 513.91-30.1Q515.16-30.1 516.51-29.55 517.86-29 519.01-28.15L519.01-28.15Q520.16-27.2 520.86-25.65 521.56-24.1 521.56-22.15L521.56-22.15 521.56-0.95Q521.56 1.15 520.88 2.63 520.21 4.1 519.01 5.1L519.01 5.1Q517.86 6.05 516.53 6.58 515.21 7.1 513.91 7.1L513.91 7.1 505.51 7.1Q502.86 7.1 500.16 5.55L500.16 5.55Q498.76 4.75 498.13 3.5 497.51 2.25 497.51 0.6L497.51 0.6 497.51 0Q497.51-1 498.16-1.6 498.81-2.2 500.21-2.2L500.21-2.2Q503.01-1.9 503.01 0L503.01 0 503.01 0.55Q503.01 1.1 503.78 1.75 504.56 2.4 506.41 2.4L506.41 2.4 512.66 2.4Q514.51 2.4 515.28 1.35 516.06 0.3 516.06-1L516.06-1 516.06-22.1Q516.06-23.35 515.28-24.38 514.51-25.4 512.66-25.4L512.66-25.4 506.41-25.4Q504.56-25.4 503.78-24.38 503.01-23.35 503.01-22.1L503.01-22.1 503.01-11.55Q503.01-10.3 503.78-9.22 504.56-8.15 506.41-8.15L506.41-8.15 511.61-8.15Q513.41-8.15 513.41-5.85L513.41-5.85Q513.41-4.8 512.98-4.15 512.56-3.5 511.61-3.5L511.61-3.5ZM548.9-27.9L548.9-2.1Q548.9 0.3 546.15 0.3L546.15 0.3Q543.35 0.3 543.35-2.1L543.35-2.1 543.35-27.9Q543.35-30.3 546.15-30.3L546.15-30.3Q548.9-30.3 548.9-27.9L548.9-27.9ZM549.95-36.6L549.95-36.6Q549.95-35 548.85-33.9 547.75-32.8 546.15-32.8L546.15-32.8Q544.55-32.8 543.43-33.9 542.3-35 542.3-36.6L542.3-36.6Q542.3-38.25 543.43-39.35 544.55-40.45 546.15-40.45L546.15-40.45Q547.75-40.45 548.85-39.35 549.95-38.25 549.95-36.6ZM561.35-21.75L561.35-2.1Q561.35 0.3 558.6 0.3L558.6 0.3Q555.85 0.3 555.85-2.1L555.85-2.1 555.85-22.2Q555.85-24.25 556.5-25.75 557.15-27.25 558.55-28.2L558.55-28.2Q561.2-30.1 563.85-30.1L563.85-30.1 571.9-30.1Q574.45-30.1 577.2-28.2L577.2-28.2Q579.9-26.3 579.9-22.2L579.9-22.2 579.9-2.1Q579.9 0.3 577.15 0.3L577.15 0.3Q574.4 0.3 574.4-2.1L574.4-2.1 574.4-21.75Q574.4-23.05 573.6-24.25L573.6-24.25 573.65-24.2Q573-25.4 571-25.4L571-25.4 564.75-25.4Q562.7-25.4 562.05-24.2L562.05-24.2Q561.35-23.15 561.35-21.75L561.35-21.75ZM593.29-25.4L593.29-2.1Q593.29 0.3 590.5 0.3L590.5 0.3Q587.75 0.3 587.75-2.1L587.75-2.1 587.75-25.4 585.34-25.4Q583.54-25.4 583.44-27.75L583.44-27.75Q583.44-30.1 585.34-30.1L585.34-30.1 587.75-30.1 587.75-32.5Q587.75-34.55 588.32-35.98 588.89-37.4 590.19-38.15L590.19-38.15 590.19-38.1Q591.5-38.9 592.87-39.35 594.25-39.8 595.79-39.8L595.79-39.8 597-39.8Q598.84-39.8 598.84-37.45L598.84-37.45Q598.94-35.1 597-35.1L597-35.1 596.19-35.1Q595.25-35.1 594.67-34.93 594.09-34.75 593.79-34.4 593.5-34.05 593.39-33.55 593.29-33.05 593.29-32.45L593.29-32.45 593.29-30.1 597.04-30.1Q599-30.1 598.89-27.75L598.89-27.75Q598.89-25.4 597.04-25.4L597.04-25.4 593.29-25.4ZM611.14-30.1L619.14-30.1Q620.44-30.1 621.82-29.55 623.19-29 624.49-28.15L624.49-28.15 624.44-28.15Q625.74-27.2 626.44-25.68 627.14-24.15 627.14-22.15L627.14-22.15 627.14-7.95Q627.14-3.85 624.44-1.9L624.44-1.9Q621.79 0 619.14 0L619.14 0 611.14 0Q609.84 0 608.49-0.45 607.14-0.9 605.84-1.9L605.84-1.9Q603.14-3.8 603.14-7.95L603.14-7.95 603.14-22.15Q603.14-24.15 603.84-25.68 604.54-27.2 605.84-28.15L605.84-28.15 605.79-28.15Q607.04-29 608.44-29.55 609.84-30.1 611.14-30.1L611.14-30.1ZM612.04-4.7L618.24-4.7Q620.09-4.7 620.87-5.75 621.64-6.8 621.64-8L621.64-8 621.64-22.1Q621.64-23.35 620.87-24.38 620.09-25.4 618.24-25.4L618.24-25.4 612.04-25.4Q610.19-25.4 609.42-24.38 608.64-23.35 608.64-22.1L608.64-22.1 608.64-8Q608.64-6.8 609.42-5.75 610.19-4.7 612.04-4.7L612.04-4.7ZM638.84-22.75L638.84-2.1Q638.84 0.3 636.09 0.3L636.09 0.3Q633.24 0.3 633.24-2.1L633.24-2.1 633.24-22.8Q633.24-26.9 635.69-28.5L635.69-28.5Q638.14-30.1 641.34-30.1L641.34-30.1 647.04-30.1Q648.89-30.1 648.89-27.75L648.89-27.75Q648.99-25.4 647.04-25.4L647.04-25.4 641.74-25.4Q639.94-25.4 639.39-24.7 638.84-24 638.84-22.75L638.84-22.75ZM668.64-1.95L668.64-21.75Q668.64-22.4 668.44-23.03 668.24-23.65 667.94-24.2L667.94-24.2Q667.29-25.4 665.24-25.4L665.24-25.4 662.04-25.4Q659.99-25.4 659.29-24.2L659.29-24.2Q658.69-23.05 658.69-21.75L658.69-21.75 658.69-1.95Q658.69 0.4 655.94 0.4L655.94 0.4Q653.09 0.4 653.09-1.95L653.09-1.95 653.09-22.2Q653.09-26.3 655.79-28.2L655.79-28.2Q658.54-30.1 661.14-30.1L661.14-30.1 666.19-30.1Q667.34-30.1 668.74-29.65 670.14-29.2 671.44-28.25L671.44-28.25Q672.69-29.2 674.06-29.65 675.44-30.1 676.69-30.1L676.69-30.1 681.69-30.1Q684.34-30.1 686.99-28.2L686.99-28.2Q689.74-26.35 689.74-22.2L689.74-22.2 689.74-1.95Q689.74 0.4 686.94 0.4L686.94 0.4Q684.14 0.4 684.14-1.95L684.14-1.95 684.14-21.75Q684.14-22.4 683.99-23.05 683.84-23.7 683.44-24.25L683.44-24.25 683.49-24.2Q683.09-24.85 682.49-25.13 681.89-25.4 680.74-25.4L680.74-25.4 677.59-25.4Q675.49-25.4 674.84-24.2L674.84-24.2Q674.19-23.1 674.19-21.75L674.19-21.75 674.19-1.95Q674.19 0.4 671.44 0.4L671.44 0.4Q668.64 0.4 668.64-1.95L668.64-1.95ZM709.93 0L703.38 0Q701.83 0 700.43-0.43 699.03-0.85 697.73-1.65L697.73-1.65 697.73-1.6Q695.28-3.15 695.28-7.3L695.28-7.3 695.28-9.75Q695.28-11.8 696.01-13.33 696.73-14.85 698.03-15.75L698.03-15.75 697.98-15.75Q699.23-16.6 700.63-17.03 702.03-17.45 703.33-17.45L703.33-17.45 714.38-17.45 714.38-22.1Q714.38-23.35 713.61-24.38 712.83-25.4 710.98-25.4L710.98-25.4 705.13-25.4Q703.23-25.4 702.51-24.48 701.78-23.55 701.78-22.3L701.78-22.3 701.78-21.9Q701.78-19.3 698.98-19.3L698.98-19.3Q696.18-19.3 696.18-21.9L696.18-21.9 696.18-22.35Q696.18-24.4 696.91-25.8 697.63-27.2 698.88-28.15L698.88-28.15 698.83-28.15Q700.13-29 701.56-29.55 702.98-30.1 704.28-30.1L704.28-30.1 711.88-30.1Q713.13-30.1 714.56-29.55 715.98-29 717.23-28.15L717.23-28.15 717.18-28.15Q718.48-27.2 719.18-25.68 719.88-24.15 719.88-22.15L719.88-22.15 719.88-2.1Q719.88 0.3 717.13 0.3L717.13 0.3Q716.58 0.3 716.11 0.25 715.63 0.2 715.26-0.03 714.88-0.25 714.66-0.68 714.43-1.1 714.43-1.8L714.43-1.8 714.38-12.75 704.28-12.75Q703.18-12.75 702.58-12.5 701.98-12.25 701.63-11.7L701.63-11.7Q701.23-10.85 701.06-10.38 700.88-9.9 700.88-9.3L700.88-9.3 700.88-7.35Q700.88-6.05 701.66-5.38 702.43-4.7 704.33-4.7L704.33-4.7 709.93-4.7Q711.78-4.7 711.78-2.35L711.78-2.35Q711.78-1.35 711.33-0.68 710.88 0 709.93 0L709.93 0ZM737.03-25.4L732.88-25.4 732.88-7.2Q732.88-5.9 733.43-5.2 733.98-4.5 735.78-4.5L735.78-4.5 737.08-4.5Q739.03-4.5 738.93-2.2L738.93-2.2Q738.93 0.15 737.08 0.15L737.08 0.15 735.43 0.15Q733.83 0.15 732.43-0.28 731.03-0.7 729.73-1.5L729.73-1.5 729.73-1.45Q727.28-3.05 727.28-7.15L727.28-7.15 727.28-25.4 725.33-25.4Q723.53-25.4 723.43-27.75L723.43-27.75Q723.43-30.1 725.33-30.1L725.33-30.1 727.28-30.1 727.28-35.45Q727.28-37.85 730.13-37.85L730.13-37.85Q732.88-37.85 732.88-35.45L732.88-35.45 732.88-30.1 737.03-30.1Q738.98-30.1 738.88-27.75L738.88-27.75Q738.88-25.4 737.03-25.4L737.03-25.4ZM748.93-27.9L748.93-2.1Q748.93 0.3 746.18 0.3L746.18 0.3Q743.38 0.3 743.38-2.1L743.38-2.1 743.38-27.9Q743.38-30.3 746.18-30.3L746.18-30.3Q748.93-30.3 748.93-27.9L748.93-27.9ZM749.98-36.6L749.98-36.6Q749.98-35 748.88-33.9 747.78-32.8 746.18-32.8L746.18-32.8Q744.58-32.8 743.45-33.9 742.33-35 742.33-36.6L742.33-36.6Q742.33-38.25 743.45-39.35 744.58-40.45 746.18-40.45L746.18-40.45Q747.78-40.45 748.88-39.35 749.98-38.25 749.98-36.6ZM763.88-30.1L771.88-30.1Q773.18-30.1 774.55-29.55 775.93-29 777.23-28.15L777.23-28.15 777.18-28.15Q778.48-27.2 779.18-25.68 779.88-24.15 779.88-22.15L779.88-22.15 779.88-7.95Q779.88-3.85 777.18-1.9L777.18-1.9Q774.53 0 771.88 0L771.88 0 763.88 0Q762.58 0 761.23-0.45 759.88-0.9 758.58-1.9L758.58-1.9Q755.88-3.8 755.88-7.95L755.88-7.95 755.88-22.15Q755.88-24.15 756.58-25.68 757.28-27.2 758.58-28.15L758.58-28.15 758.53-28.15Q759.78-29 761.18-29.55 762.58-30.1 763.88-30.1L763.88-30.1ZM764.78-4.7L770.98-4.7Q772.83-4.7 773.6-5.75 774.38-6.8 774.38-8L774.38-8 774.38-22.1Q774.38-23.35 773.6-24.38 772.83-25.4 770.98-25.4L770.98-25.4 764.78-25.4Q762.93-25.4 762.15-24.38 761.38-23.35 761.38-22.1L761.38-22.1 761.38-8Q761.38-6.8 762.15-5.75 762.93-4.7 764.78-4.7L764.78-4.7ZM791.67-21.75L791.67-2.1Q791.67 0.3 788.92 0.3L788.92 0.3Q786.17 0.3 786.17-2.1L786.17-2.1 786.17-22.2Q786.17-24.25 786.82-25.75 787.47-27.25 788.87-28.2L788.87-28.2Q791.52-30.1 794.17-30.1L794.17-30.1 802.22-30.1Q804.77-30.1 807.52-28.2L807.52-28.2Q810.22-26.3 810.22-22.2L810.22-22.2 810.22-2.1Q810.22 0.3 807.47 0.3L807.47 0.3Q804.72 0.3 804.72-2.1L804.72-2.1 804.72-21.75Q804.72-23.05 803.92-24.25L803.92-24.25 803.97-24.2Q803.32-25.4 801.32-25.4L801.32-25.4 795.07-25.4Q793.02-25.4 792.37-24.2L792.37-24.2Q791.67-23.15 791.67-21.75L791.67-21.75Z" opacity="1" transform="matrix(1,0,0,1,0,0)" fill="#ffc604" class="undefined-text-1" data-fill-palette-color="secondary" id="text-1"></path></svg></g></svg></g></svg></g></svg></g><g transform="matrix(1,0,0,1,147.2731127448764,0)"><svg viewBox="0 0 100.97377451024722 132.6282404184658" height="132.6282404184658" width="100.97377451024722"><g><svg xmlns="http://www.w3.org/2000/svg" xmlns:xlink="http://www.w3.org/1999/xlink" version="1.1" x="0" y="0" viewBox="13.645000000000003 2.248 72.71000000000001 95.50399999999998" enable-background="new 0 0 100 100" xml:space="preserve" height="132.6282404184658" width="100.97377451024722" class="icon-icon-0" fill="#ff4136" data-fill-palette-color="accent" id="icon-0"><path d="M50 2.248c-20.046 0-36.354 16.309-36.355 36.355 0 4.068 0.667 8.062 1.982 11.873 6.04 17.401 16.431 33.138 30.017 45.479 1.166 1.159 2.712 1.797 4.356 1.797 1.645 0 3.189-0.638 4.322-1.766 13.617-12.37 24.009-28.108 30.051-45.513 1.314-3.81 1.982-7.805 1.982-11.871C86.355 18.557 70.047 2.248 50 2.248zM50 66.109c-15.241 0-27.64-12.397-27.64-27.637 0-15.24 12.399-27.639 27.64-27.639 15.24 0 27.639 12.397 27.639 27.638C77.639 53.712 65.24 66.109 50 66.109z" fill="#ff4136" data-fill-palette-color="accent"></path><path d="M67.989 49.979L51.152 20.817l1.556-2.696c0.276-0.479 0.112-1.09-0.366-1.366-0.478-0.276-1.09-0.113-1.366 0.366l-0.979 1.695-0.979-1.695c-0.277-0.478-0.887-0.643-1.366-0.366-0.478 0.276-0.642 0.888-0.366 1.366l1.556 2.696L31.917 50.131c-0.392 0.681 0.114 1.5 0.866 1.5h34.428c0.006 0 0.014 0 0.02 0C68.046 51.631 68.469 50.703 67.989 49.979zM43.27 49.631l6.729-11.652 6.727 11.652H43.27zM59.034 49.631l-8.17-14.152c-0.179-0.31-0.509-0.5-0.866-0.5s-0.688 0.19-0.866 0.5l-8.172 14.152h-6.444l15.482-26.814 15.481 26.814H59.034z" fill="#ff4136" data-fill-palette-color="accent"></path></svg></g></svg></g><g></g></svg></g></svg><rect width="395.52" height="244.30982176258834" fill="transparent" stroke="transparent"></rect></g></svg></g></svg>